<?xml version="1.0" standalone="no"?>
<!DOCTYPE svg PUBLIC "-//W3C//DTD SVG 1.1//EN" "http://www.w3.org/Graphics/SVG/1.1/DTD/svg11.dtd" >
<!--
2013-9-30: Created.
-->
<svg>
<metadata>
Created by iconfont
</metadata>
<defs>

<font id="iconfont" horiz-adv-x="1024" >
  <font-face
    font-family="iconfont"
    font-weight="500"
    font-stretch="normal"
    units-per-em="1024"
    ascent="896"
    descent="-128"
  />
    <missing-glyph />
    
    <glyph glyph-name="x" unicode="x" horiz-adv-x="1001"
d="M281 543q-27 -1 -53 -1h-83q-18 0 -36.5 -6t-32.5 -18.5t-23 -32t-9 -45.5v-76h912v41q0 16 -0.5 30t-0.5 18q0 13 -5 29t-17 29.5t-31.5 22.5t-49.5 9h-133v-97h-438v97zM955 310v-52q0 -23 0.5 -52t0.5 -58t-10.5 -47.5t-26 -30t-33 -16t-31.5 -4.5q-14 -1 -29.5 -0.5
t-29.5 0.5h-32l-45 128h-439l-44 -128h-29h-34q-20 0 -45 1q-25 0 -41 9.5t-25.5 23t-13.5 29.5t-4 30v167h911zM163 247q-12 0 -21 -8.5t-9 -21.5t9 -21.5t21 -8.5q13 0 22 8.5t9 21.5t-9 21.5t-22 8.5zM316 123q-8 -26 -14 -48q-5 -19 -10.5 -37t-7.5 -25t-3 -15t1 -14.5
t9.5 -10.5t21.5 -4h37h67h81h80h64h36q23 0 34 12t2 38q-5 13 -9.5 30.5t-9.5 34.5q-5 19 -11 39h-368zM336 498v228q0 11 2.5 23t10 21.5t20.5 15.5t34 6h188q31 0 51.5 -14.5t20.5 -52.5v-227h-327z" />
    

    
    <glyph glyph-name="eye" unicode="&#58901;" d="M64 401.216l0-34.432c206.72-344.576 689.28-344.576 896 0L960 401.216C753.28 745.792 270.72 745.792 64 401.216zM512 177.216c-114.24 0-206.72 92.608-206.72 206.784 0 114.24 92.48 206.656 206.72 206.656 114.112 0 206.784-92.416 206.784-206.656C718.784 269.82399999999996 626.112 177.216 512 177.216zM512 384.064m-103.36 0a1.615 1.615 0 1 1 206.72 0 1.615 1.615 0 1 1-206.72 0Z"  horiz-adv-x="1024" />

    
    <glyph glyph-name="category" unicode="&#58902;" d="M144.40625 3.9187500000000455c-42.28125029 0-76.68749971 34.38749971-76.68749971 76.66875 0 42.3 34.38749971 76.68749971 76.68749971 76.68749971 42.28125029 0 76.66875-34.38749971 76.66875-76.68749971C221.075 38.28750000000002 186.68750029 3.9187500000000455 144.40625 3.9187500000000455zM144.40625 117.69375029000003c-20.45625029 0-37.10625029-16.65-37.10625029-37.10625029 0-20.45625029 16.65-37.10625029 37.10625029-37.10625029 20.45625029 0 37.10625029 16.65 37.10625029 37.10625029C181.51250029 101.04375029000005 164.86250029 117.69375029000003 144.40625 117.69375029000003zM952.62499971 55.93125028999998L336.98750029 55.93125028999998l0 49.31250029L952.62499971 105.24374970999997 952.62499971 55.93125028999998zM144.40625 307.10625000000005c-42.28125029 0-76.68749971 34.40625029-76.68749971 76.68749971s34.38749971 76.66875 76.68749971 76.66875c42.28125029 0 76.66875-34.38749971 76.66875-76.66875S186.68750029 307.10625000000005 144.40625 307.10625000000005zM144.40625 420.9c-20.45625029 0-37.10625029-16.65-37.10625029-37.10625029 0-20.475 16.65-37.10625029 37.10625029-37.1062503 20.45625029 0 37.10625029 16.65 37.10625029 37.1062503C181.51250029 404.25 164.86250029 420.9 144.40625 420.9zM952.62499971 359.13750000000005L336.98750029 359.13750000000005l0 49.31250029L952.62499971 408.45000029 952.62499971 359.13750000000005zM144.40625 629.08125c-42.28125029 0-76.68749971 34.38749971-76.68749971 76.66875 0 42.28125029 34.38749971 76.68749971 76.68749971 76.68749971 42.28125029 0 76.66875-34.38749971 76.66875-76.68749971C221.075 663.46874971 186.68750029 629.08125 144.40625 629.08125zM144.40625 742.8562502899999c-20.45625029 0-37.10625029-16.65-37.10625029-37.10625029 0-20.45625029 16.65-37.10625029 37.10625029-37.10625029 20.45625029 0 37.10625029 16.65 37.10625029 37.10625029C181.51250029 726.2062502900001 164.86250029 742.8562502899999 144.40625 742.8562502899999zM952.62499971 681.1125L336.98750029 681.1125l0 49.31250029L952.62499971 730.4250002900001 952.62499971 681.1125z"  horiz-adv-x="1024" />

    
    <glyph glyph-name="success" unicode="&#58922;" d="M928.589161 594.658837L928.589161 594.658837 448.433196 97.94703200000004l0 0c-11.345861-11.711739-27.003087-18.958794-44.28232-18.958794-17.309934 0-32.96716 7.247054-44.313021 18.958794l0 0-271.377596 280.754289 0 0c-11.345861 11.711739-18.349655 27.921933-18.349655 45.810349 0 35.776831 28.042809 64.799842 62.629929 64.799842 17.30891 0 32.937483-7.248078 44.28232-18.990516l0 0 227.127-234.915287 435.875691 450.871781 0 0c11.345861 11.743462 27.002064 18.990516 44.281297 18.990516 34.588143 0 62.631975-28.991288 62.631975-64.799842C946.938816 622.578724 939.936045 606.401276 928.589161 594.658837z"  horiz-adv-x="1024" />

    
    <glyph glyph-name="sf" unicode="&#58882;" d="M169.916413 155.58372999999995c33.172517-30.046317 80.854493-57.014528 126.47246-57.014528 33.172517 0 70.485331 14.514575 70.485331 53.91084 0 43.532469-50.79692 50.78771-107.809401 75.674517-64.269769 27.994588-118.179586 62.193481-118.179586 144.096862 0 106.771769 86.043678 152.378479 192.815447 152.378479 58.052161 0 120.255875-13.483082 164.822906-42.502l0-12.434194-41.464367-81.904405c-29.020964 21.765723-68.420299 36.276205-111.960954 36.276205-38.352493 0-62.193481-15.538905-62.193481-45.604664 0-39.380916 45.616944-47.682999 102.630449-69.449745 78.779228-30.067806 126.461203-63.240323 126.461203-147.198503 0-109.87648-86.034469-157.576875-200.061478-157.576875-72.570829 0-130.62299 19.706831-185.560206 61.164035L126.374734 77.83292500000005 169.916413 155.58372999999995zM638.40441 5.302005000000008c0 10.514471 2.084475 296.641117 3.128247 395.519102-28.364001-1.043772-57.854663-1.043772-66.23861-1.043772l1.043772 106.241696c8.42488 0 36.83186 0 64.152089-1.043772 0 4.212952-2.084475 91.518367-2.084475 94.668103 0 118.858038 69.409836 163.05361 159.882384 163.05361 38.918381 0 78.877465-6.319939 118.881574-23.151279l0-15.767102-30.53341-84.154655c-16.811898 9.469676-35.749202 14.724353-52.599985 14.724353-29.447682 0-48.38601-14.724353-48.38601-70.473051 0-18.936281 1.083681-74.686003 1.083681-78.899978 31.53625 1.043772 91.518367 1.043772 99.903338 1.043772l-1.043772-106.241696c-8.426927 0-68.367087 0-99.943246 1.043772 2.12643-98.877985 2.12643-385.004631 2.12643-395.519102L638.40441 5.302005000000008z"  horiz-adv-x="1024" />

    
    <glyph glyph-name="count" unicode="&#58895;" d="M143.162584 433.338708l145.585773 0 0-357.493044-145.585773 0 0 357.493044ZM434.362782 625.835907l145.585773 0 0-549.991266-145.585773 0 0 549.991266ZM725.564004 836.125331l145.585773 0 0-760.279666-145.585773 0 0 760.279666ZM0.024559 19.227156000000036l1023.950881 0 0-87.351464-1023.950881 0 0 87.351464Z"  horiz-adv-x="1024" />

    
    <glyph glyph-name="google-plus" unicode="&#59124;" d="M456.571429 441.142857q0-20.571429 18.285714-40.285714t44.285714-38.857143 51.714286-42 44-59.428571 18.285714-81.142857q0-51.428571-27.428571-98.857143-41.142857-69.714286-120.571429-102.571429t-170.285714-32.857143q-75.428571 0-140.857143 23.714286t-98 78.571429q-21.142857 34.285714-21.142857 74.857143 0 46.285714 25.428571 85.714286t67.714286 65.714286q74.857143 46.857143 230.857143 57.142857-18.285714 24-27.142857 42.285714t-8.857143 41.714286q0 20.571429 12 48.571429-26.285714-2.285714-38.857143-2.285714-84.571429 0-142.571429 55.142857t-58 139.714286q0 46.857143 20.571429 90.857143t56.571429 74.857143q44 37.714286 104.285714 56t124.285714 18.285714l238.857143 0-78.857143-50.285714-74.857143 0q42.285714-36 64-76t21.714286-91.428571q0-41.142857-14-74t-33.714286-53.142857-39.714286-37.142857-34-35.142857-14-37.714286z m-83.428571 54.857143q21.714286 0 44.571429 9.428571t37.714286 24.857143q30.285714 32.571429 30.285714 90.857143 0 33.142857-9.714286 71.428571t-27.714286 74-48.285714 59.142857-66.857143 23.428571q-24 0-47.142857-11.142857t-37.428571-30q-26.857143-33.714286-26.857143-91.428571 0-26.285714 5.714286-55.714286t18-58.857143 29.714286-52.857143 42.857143-38.285714 55.142857-14.857143z m1.142857-498.857143q33.142857 0 63.714286 7.428571t56.571429 22.285714 41.714286 41.714286 15.714286 62.285714q0 14.285714-4 28t-8.285714 24-15.428571 23.714286-16.857143 20-22 19.714286-20.857143 16.571429-23.714286 17.142857-20.857143 14.857143q-9.142857 1.142857-27.428571 1.142857-30.285714 0-60-4t-61.428571-14.285714-55.428571-26.285714-39.142857-42.571429-15.428571-60.285714q0-40 20-70.571429t52.285714-47.428571 68-25.142857 72.857143-8.285714z m462.857143 500.571429l121.714286 0 0-61.714286-121.714286 0 0-125.142857-60 0 0 125.142857-121.142857 0 0 61.714286 121.142857 0 0 124 60 0 0-124z"  horiz-adv-x="1024" />

    
    <glyph glyph-name="renren" unicode="&#59261;" d="M720.571429-85.142857q-97.714286-53.714286-210.285714-53.714286-112 0-209.714286 53.714286 78.857143 49.714286 134.571429 120.571429t75.142857 153.142857q20-82.285714 75.714286-153.142857t134.571429-120.571429zm-282.857143 816l0-277.142857q0-144-72.285714-262.571429t-188.857143-175.142857q-103.428571 122.857143-103.428571 282.857143 0 106.857143 47.714286 199.714286t131.142857 154 185.714286 78.285714zm513.142857-432q0-160-103.428571-282.857143-116.571429 56.571429-188.857143 175.142857t-72.285714 262.571429l0 277.142857q102.285714-17.142857 185.714286-78.285714t131.142857-154 47.714286-199.714286z"  horiz-adv-x="1024" />

    
    <glyph glyph-name="reply" unicode="&#58911;" d="M896-20C896-20 810.666669 438.051764 436.309333 438.051764L436.309333 620 128 316.225882 436.309333 1.355296 436.309333 206.447059C639.488 206.447059 790.016 186.578824 896-20"  horiz-adv-x="1024" />

    
    <glyph glyph-name="mac" unicode="&#59137;" d="M900.428 173.93600000000004c-20.99-46.537-31.064-67.31-58.109-108.441-37.73-57.463-90.928-128.96-156.841-129.594-58.578-0.533-73.606 38.135-153.098 37.666-79.491-0.418-96.078-38.325-154.67-37.794-65.902 0.598-116.32 65.193-154.063 122.615-105.544 160.623-116.572 349.126-51.482 449.33 46.255 71.218 119.226 112.894 187.842 112.894 69.875 0 113.796-38.299 171.551-38.299 56.026 0 90.163 38.364 170.938 38.364 61.054 0 125.725-33.249 171.842-90.699-151.043-82.755-126.5-298.364 26.09-356.042v0zM641.214 684.826c29.352 37.691 51.637 90.852 43.554 145.216-47.944-3.325-104.012-33.807-136.753-73.552-29.705-36.092-54.236-89.593-44.695-141.624 52.337-1.614 106.486 29.644 137.894 69.96v0z"  horiz-adv-x="1024" />

    
    <glyph glyph-name="icon19" unicode="&#58894;" d="M940.571-52.693l-214.475 214.722c44.778 60.855 69.263 134.077 69.263 211.012 0 95.732-37.354 185.78-104.889 253.311-67.781 67.536-157.825 104.889-253.557 104.889s-185.78-37.354-253.311-104.889c-139.518-139.518-139.518-366.859 0-506.626 67.536-67.536 157.579-104.889 253.311-104.889 77.18 0 150.155 24.487 211.257 69.263l214.475-214.722c21.52-21.52 56.403-21.52 77.676 0 21.77 21.52 21.77 56.403 0.25 77.921zM252.866 188.744c-101.425 101.673-101.425 266.916 0 368.342 49.227 49.227 114.535 76.192 184.295 76.192 69.511 0 134.819-26.966 184.047-76.192 49.227-49.227 76.443-114.535 76.443-184.295 0-69.762-27.211-135.065-76.443-184.295-49.227-49.227-114.535-76.192-184.047-76.192-69.762 0.25-135.065 27.211-184.295 76.443z"  horiz-adv-x="1024" />

    
    <glyph glyph-name="android" unicode="&#58885;" d="M874.28889 115.006157C842.688238 115.006157 817.100099 141.666294 817.100099 174.478771L817.100099 428.822072C817.100099 461.681157 842.688238 488.294685 874.28889 488.294685 905.889542 488.294685 931.47768 461.681157 931.47768 428.822072L931.47768 174.478771C931.47768 141.666294 905.889542 115.006157 874.28889 115.006157ZM718.569453-10.510887 674.990382-10.510887C676.43525-15.777662 677.274205-21.277481 677.274205-27.010342L677.274205-30.319555 677.274205-50.128224 677.274205-152.527386C677.274205-185.386472 651.639458-212 620.038806-212 588.484763-212 562.850015-185.386472 562.850015-152.527386L562.850015-50.128224 562.850015-30.319555 562.850015-27.010342C562.850015-21.277481 563.688971-15.777662 565.133838-10.510887L458.866159-10.510887C460.311027-15.777662 461.196591-21.277481 461.196591-27.010342L461.196591-30.319555 461.196591-50.128224 461.196591-152.527386C461.196591-185.386472 435.561843-212 403.961191-212 372.360539-212 346.725792-185.386472 346.725792-152.527386L346.725792-50.128224 346.725792-30.319555 346.725792-27.010342C346.725792-21.277481 347.564747-15.777662 349.009615-10.510887L305.430545-10.510887C272.151982-10.510887 245.072367 17.640726 245.072367 52.270939L245.072367 398.526461 245.072367 438.842927 245.072367 488.294685 249.173927 488.294685 774.826071 488.294685 778.92763 488.294685 778.92763 438.842927 778.92763 398.526461 778.92763 52.270939C778.92763 17.640726 751.894624-10.510887 718.569453-10.510887ZM380.750093 726.231748 370.030108 743.010855 359.40334 759.510311 335.632938 796.610781C332.743203 801.131818 333.908419 807.284158 338.28963 810.313719 342.670841 813.389888 348.590137 812.131455 351.526481 807.56381L377.021402 767.806647 387.741388 751.120757 398.601199 734.201824C433.044977 748.044587 471.450489 755.828229 511.999999 755.828229 552.549508 755.828229 591.001629 748.044587 625.445407 734.201824L636.305218 751.120757 647.025204 767.806647 672.520125 807.56381C675.40986 812.131455 681.329156 813.389888 685.756976 810.313719 690.091579 807.284158 691.303403 801.131818 688.36706 796.610781L664.596658 759.510311 654.016498 743.010855 643.249904 726.231748C724.209097 687.080498 778.92763 612.879557 778.92763 527.912022L245.072367 527.912022C245.072367 612.879557 299.837509 687.080498 380.750093 726.231748ZM626.424189 607.193304C642.224515 607.193304 654.995279 620.523372 654.995279 636.92961 654.995279 653.335849 642.224515 666.619308 626.424189 666.619308 610.623863 666.619308 597.806489 653.335849 597.806489 636.92961 597.806489 620.523372 610.623863 607.193304 626.424189 607.193304ZM397.622417 607.193304C413.422744 607.193304 426.193508 620.523372 426.193508 636.92961 426.193508 653.335849 413.422744 666.619308 397.622417 666.619308 381.822091 666.619308 369.004718 653.335849 369.004718 636.92961 369.004718 620.523372 381.822091 607.193304 397.622417 607.193304ZM149.711108 115.006157C118.110456 115.006157 92.522317 141.666294 92.522317 174.478771L92.522317 428.822072C92.522317 461.681157 118.110456 488.294685 149.711108 488.294685 181.31176 488.294685 206.946507 461.681157 206.946507 428.822072L206.946507 174.478771C206.946507 141.666294 181.31176 115.006157 149.711108 115.006157Z"  horiz-adv-x="1024" />

    
    <glyph glyph-name="description" unicode="&#58898;" d="M768.262478 0.9657023333334109L253.68784 0.9657023333334109c-56.83545 0-102.912881 45.983287-102.912881 102.71436L150.774959 617.2498143333332c0 56.731072 46.076408 102.71743 102.912881 102.71743l77.186963 0L330.874803 771.3249353333333l69.303412 0c22.284539 30.571273 63.303768 51.356668 110.797455 51.356668 47.494711 0 88.515986-20.785396 110.801549-51.356668l69.299319 0 0-51.356668 77.18594 0c56.837496 0 102.914928-45.986357 102.914928-102.71743l0-513.569752C871.178429 46.94899033333343 825.099974 0.9657023333334109 768.262478 0.9657023333334109zM639.620609 719.9672433333333l-57.175187 0c0 28.361955-31.996738 51.356668-71.468728 51.356668-39.470967 0-71.467705-22.995737-71.467705-51.356668l-57.174164 0 0-102.71743 257.285784 0L639.620609 719.9672433333333zM819.720454 617.2498143333332c0 28.364001-23.037692 51.358715-51.457975 51.358715l-77.18594 0 0-102.716406L330.874803 565.8921223333333 330.874803 668.6085283333333l-77.186963 0c-28.418236 0-51.454906-22.994714-51.454906-51.358715l0-513.569752c0-28.364001 23.036669-51.358715 51.454906-51.358715l514.575662 0c28.420283 0 51.457975 22.994714 51.457975 51.358715L819.721477 617.2498143333332zM691.075515 155.03570733333333L330.874803 155.03570733333333c-14.208607 0-25.726941 11.497868-25.726941 25.680892 0 14.185071 11.518335 25.678846 25.726941 25.678846l360.201735 0c14.211676 0 25.728988-11.493775 25.728988-25.678846C716.805526 166.53357533333337 705.287191 155.03570733333333 691.075515 155.03570733333333zM691.075515 283.42993633333333L330.874803 283.42993633333333c-14.208607 0-25.726941 11.497868-25.726941 25.676799 0 14.185071 11.518335 25.681916 25.726941 25.681916l360.201735 0c14.211676 0 25.728988-11.497868 25.728988-25.681916C716.805526 294.92780433333337 705.287191 283.42993633333333 691.075515 283.42993633333333zM691.075515 411.8210943333333L330.874803 411.8210943333333c-14.208607 0-25.726941 11.500938-25.726941 25.676799 0 14.186094 11.518335 25.683962 25.726941 25.683962l360.201735 0c14.211676 0 25.728988-11.497868 25.728988-25.683962C716.805526 423.3220333333333 705.287191 411.8210943333333 691.075515 411.8210943333333z"  horiz-adv-x="1024" />

    
    <glyph glyph-name="zan" unicode="&#58974;" d="M959.06764 312.568247c0.332575-4.120854 0.025583-8.360412-1.090844-12.583596l-80.599689-355.74626c-1.12973-4.263094-2.996241-8.132214-5.360078-11.574616-8.632611-17.232476-21.759583-32.475646-39.209-43.576471-18.384719-11.68411-38.915311-17.140379-59.198264-17.102516l0 0.224104-517.702885 0.217964c-1.810229-0.270153-3.645017-0.451278-5.526877-0.451278-1.890047 0-3.730974 0.182149-5.555529 0.461511l-137.703245 0.054235c-1.936095-0.310062-3.903913-0.515746-5.930059-0.515746-20.6012 0-37.298488 16.698311-37.298488 37.296441l0.338714 447.777303c0 20.6012 16.703427 37.297464 37.306674 37.297464 1.539053 0 3.046383-0.121773 4.541433-0.308015l123.782188 0.290619 0 0.701988c113.888863 8.154727 204.136284 101.517091 207.356628 216.70453-0.287549 3.240811-0.49221 6.500041-0.49221 9.81453 0 59.925834 48.576345 108.509343 108.510366 108.509343 51.497884 0 94.52177-35.911908 105.633852-84.028788l0.549515 0.069585c6.109138-27.470655 9.438976-55.987129 9.438976-85.292572 0-45.186132-7.712659-88.553848-21.828145-128.913045l208.188576-0.225127c1.915629 0 3.78828-0.190335 5.628184-0.470721 35.547611-1.399883 69.78539-19.702738 89.952708-52.206012C955.623191 358.319244 960.741769 335.093263 959.06764 312.568247M138.520355-52.928075l74.591859-0.035816 0.281409 372.656395-74.521251-0.167822L138.520355-52.928075 138.520355-52.928075zM879.837134 340.019459c-7.169283 11.55722-19.834744 17.636682-32.523741 16.953114l0 0.107447c-0.032746 0-0.064468 0-0.096191 0l-263.156492 0.273223c-20.595061 0-37.298488 16.703427-37.298488 37.305651 0 5.930059 1.425466 11.523451 3.891633 16.500812l-0.396019 0.324388c14.902408 27.738761 25.738198 57.978483 31.886221 89.876983l0.466628-0.01228c0 0 4.958942 20.139689 4.894474 58.769498-0.052189 30.601972-5.630231 58.539254-5.630231 58.539254l-0.280386 0c0.025583 0.543376 0.082888 1.073448 0.082888 1.622964 0 19.257599-15.617699 34.875299-34.876322 34.875299-19.265786 0-34.883485-15.617699-34.883485-34.875299 0-0.805342 0.069585-1.599428 0.118704-2.38942l-0.485047-0.008186c0 0 0.595564-29.119201-5.219885-59.319014-2.466168-12.811794-5.937223-24.759917-9.095145-34.223452-0.062422 0.031722-0.119727 0.057305-0.184195 0.086981-31.392988-95.977935-110.328781-170.376389-208.986755-195.438181l-0.360204-381.981784 486.081701-0.197498c1.641383 0 3.245927-0.14224 4.831029-0.352017 4.849448 0.641613 9.642614 2.320858 14.045901 5.118578 6.248308 3.967358 10.785647 9.603729 13.444197 15.95539l0.096191-0.054235 77.600379 342.510818-0.299829 0.094144C886.604258 319.769252 885.620861 330.696116 879.837134 340.019459"  horiz-adv-x="1024" />

    
    <glyph glyph-name="edit" unicode="&#58987;" d="M872.829534 286.616178c-16.58063 0-29.999245-13.416568-29.999245-30.000268l0-269.958408c0-33.07735-26.926256-60.004629-60.003606-60.004629L182.879656-73.347127c-33.079396 0-60.004629 26.926256-60.004629 60.004629L122.875027 616.608891c0 33.07735 26.925233 60.003606 60.004629 60.003606l419.96691 0c16.5837 0 29.999245 13.413498 29.999245 29.968545 0 16.584724-13.415544 30.003338-29.999245 30.003338L182.879656 736.58438c-66.186422 0-119.992885-53.82079-119.992885-119.975489l0-629.951389c0-66.185398 53.806463-120.007211 119.992885-120.007211l599.947028 0c66.185398 0 119.992885 53.822836 119.992885 120.007211l0 269.958408C902.819568 273.198587 889.400954 286.616178 872.829534 286.616178zM954.03502 727.796226c-11.720949 11.717879-30.704302 11.717879-42.426275 0L281.659403 157.848443c-11.718903-11.719926-11.718903-30.703279 0-42.427298 5.861498-5.853311 13.521968-8.78713 21.214161-8.78713 7.67275 0 15.334243 2.933819 21.197788 8.78713l629.963669 569.948807C965.751876 697.0909 965.751876 716.074254 954.03502 727.796226z"  horiz-adv-x="1024" />

    
    <glyph glyph-name="user" unicode="&#58880;" d="M514.594 824.888c-144.11 0-260.979-118.46-260.979-264.558 0-88.783 43.497-166.928 109.711-214.898-135.361-59.354-230.159-195.858-230.159-354.931h0.894c1.541-21.375 18.641-38.377 40.117-38.377s38.575 17.051 40.117 38.377h0.645c0 0.944-0.099 1.79-0.099 2.734 0 0.05 0 0.099 0 0.149 0 0.099-0.05 0.149-0.05 0.199 0.05 159.967 120 291.054 273.009 304.924 8.948-0.944 17.598-2.734 26.844-2.734 144.11 0 260.979 118.46 260.979 264.558s-116.919 264.558-261.029 264.558zM514.594 377.54499999999996c-99.769 0-180.698 81.972-180.698 183.183s80.879 183.183 180.698 183.183c99.719 0 180.647-81.972 180.647-183.183s-80.879-183.183-180.647-183.183zM896.021-6.615000000000009c0 0.348-0.199 0.645-0.199 0.994-1.043 105.038-43.397 200.034-111.35 269.131v0c-7.157 7.357-17.001 11.98-27.986 11.98-21.574 0-39.122-17.747-39.122-39.668 0-11.135 4.573-21.127 11.83-28.334l-0.099-0.05c52.742-55.229 85.302-130.589 85.302-213.853 0-1.043-0.149-1.987-0.149-3.034h0.994c1.491-21.375 18.691-38.377 40.117-38.377 21.475 0 38.575 17.051 40.117 38.377h0.597c0 0.796-0.099 1.491-0.099 2.287-0.05 0.149 0.05 0.348 0.05 0.547z"  horiz-adv-x="1024" />

    
    <glyph glyph-name="twitter" unicode="&#60572;" d="M962.267429 662.820571q-38.253714-56.027429-92.598857-95.451429 0.585143-7.972571 0.585143-23.990857 0-74.313143-21.723429-148.260571t-65.974857-141.970286-105.398857-120.32-147.456-83.456-184.539429-31.158857q-154.843429 0-283.428571 82.870857 19.968-2.267429 44.544-2.267429 128.585143 0 229.156571 78.848-59.977143 1.170286-107.446857 36.864t-65.170286 91.136q18.870857-2.852571 34.889143-2.852571 24.576 0 48.566857 6.290286-64 13.165714-105.984 63.707429t-41.984 117.394286l0 2.267429q38.838857-21.723429 83.456-23.405714-37.741714 25.161143-59.977143 65.682286t-22.308571 87.990857q0 50.322286 25.161143 93.110857 69.12-85.138286 168.301714-136.265143t212.260571-56.832q-4.534857 21.723429-4.534857 42.276571 0 76.580571 53.979429 130.56t130.56 53.979429q80.018286 0 134.875429-58.294857 62.317714 11.995429 117.174857 44.544-21.138286-65.682286-81.115429-101.741714 53.174857 5.705143 106.276571 28.598857z"  horiz-adv-x="1024" />

    
    <glyph glyph-name="phone" unicode="&#58913;" d="M295.541575 794.44607l432.91685 0c25.829272 0 46.961568-24.614607 46.961568-54.697763l0-711.494567c0-30.082132-21.131273-54.698786-46.961568-54.698786L295.541575-26.445046000000048c-25.829272 0-46.961568 24.616654-46.961568 54.698786l0 711.494567C248.580007 769.831462 269.71128 794.44607 295.541575 794.44607L295.541575 794.44607zM450.042391 76.52718700000003c-10.126638 0-18.412348-8.286734-18.412348-18.414395l0-26.878161c0-10.124592 8.286734-18.411325 18.412348-18.411325L566.106804 12.823306000000002c10.128685 0 18.413372 8.287757 18.413372 18.411325l0 26.878161c0 10.127661-8.284687 18.414395-18.413372 18.414395L450.042391 76.52718700000003 450.042391 76.52718700000003zM325.723991 723.681376l0-607.311763 373.546671 0 0 607.311763L325.723991 723.681376z"  horiz-adv-x="1024" />

    
    <glyph glyph-name="music" unicode="&#59126;" d="M869.832 205.084c0-65.695-98.311-89.458-149.097-89.458s-149.097 23.763-149.097 89.458 98.311 89.458 149.097 89.458c30.751 0 61.502-5.591 89.458-18.171L810.193 526.573 452.361 416.148l0-330.342c0-65.695-98.311-89.458-149.097-89.458s-149.097 23.763-149.097 89.458 98.311 89.458 149.097 89.458c30.751 0 61.503-5.591 89.458-18.171L392.722 607.645c0 19.569 13.046 36.809 31.684 42.865l387.65 119.277c4.193 1.398 8.387 1.864 13.047 1.864 24.693 0 44.729-20.035 44.729-44.729L869.832 205.084z"  horiz-adv-x="1024" />

    
    <glyph glyph-name="douban" unicode="&#59286;" d="M387.584 458.688l248.896 0 0-99.584-248.896 0 0 99.584ZM512 832C264.576 832 64 631.424 64 384s200.576-448 448-448 448 200.576 448 448S759.424 832 512 832zM312.896 608l398.208 0 0-49.792L312.896 558.208 312.896 608zM686.208 508.416l0-199.104L337.792 309.312 337.792 508.416 686.208 508.416zM736 160l-448 0 0 49.792 121.792 0C397.824 234.688 382.208 261.568 362.88 290.56l46.848 18.24c18.624-27.52 35.2-49.28 49.92-99.072l88.704 0c17.536 24.896 32.96 62.976 46.208 99.392l50.944-18.88c-13.312-30.72-27.712-55.616-42.944-80.512L736 209.728 736 160z"  horiz-adv-x="1024" />

    
    <glyph glyph-name="delete" unicode="&#58892;" d="M398.4 663.6c-25.6 0-46.4-20.8-46.4-46.4l0.4-559.2c0-25.6 20.8-46.4 46.4-46.4 25.6 0 46.4 20.8 46.4 46.4l-0.4 559.2C444.8 642.8 424 663.6 398.4 663.6zM630.4 663.6c-25.6 0-46.4-20.8-46.4-46.4l0.4-559.2c0-25.6 20.8-46.4 46.4-46.4 25.6 0 46.4 20.8 46.4 46.4l-0.4 559.2C677.2 642.8 656.4 663.6 630.4 663.6zM954.4 801.6l-370 0-0.4 48C584 875.2 563.2 896 537.6 896c-8.4 0-16.4-2.4-23.2-6.4-6.8 4-14.8 6.4-23.2 6.4-25.6 0-46.4-20.8-46.4-46.4l0.4-48-267.6 0c-3.6 0.8-7.2 1.6-11.2 1.6-4 0-7.6-0.8-11.2-1.6l-85.2 0c-25.6 0-46.4-20.8-46.4-46.4S44 708.4 69.6 708.4l50 0L120 14.8l0 0 0-49.2c0-51.2 41.6-92.8 92.8-92.8l46.4 0 0-0.4 511.2 0.4 0 0 46.4 0c51.2 0 92.8 41.2 92.8 92.4l-0.4 652c0 25.6-20.8 46.4-46.4 46.4-25.6 0-46.4-20.8-46.4-46.4l0.4-565.2c-1.2-72-20.8-85.2-92.8-85.2l48-1.2-527.2-0.4 60.8 1.6c-74.4 0-92.8 14-92.8 92.8l0.8-94.4-0.8 0L212.8 708.4l277.2 0c0.4 0 1.2 0 1.6 0 0.4 0 1.2 0 1.6 0l42.8 0c0.8 0 1.2 0 2 0 0.8 0 1.2 0 2 0l414.4 0c25.6 0 46.4 20.8 46.4 46.4C1000.8 780.8 980 801.6 954.4 801.6zM817.2 41.6l0-76.4-0.4 0L817.2 41.6z"  horiz-adv-x="1024" />

    
    <glyph glyph-name="home" unicode="&#58883;" d="M929.024 369.536l-80.16 72.032c-9.76 8.8-17.696 26.752-17.632 39.936l1.376 206.112c0.096 13.152-10.624 23.936-23.776 23.936l-80.384 0c-13.152 0-23.904-10.752-23.904-23.936l0.224-99.84c0.032-13.152-7.968-16.736-17.76-7.936l-145.44 137.888c-9.76 8.8-25.984 8.992-35.968 0.416l-410.464-350.976c-9.984-8.576-7.424-15.584 5.76-15.584l63.968 0c13.152 0 32.288 6.784 42.496 15.072l297.856 241.76c10.208 8.288 26.752 8.064 36.704-0.544l277.28-238.752c9.984-8.576 28.896-15.616 42.08-15.616l61.696 0c13.088 0.032 15.872 7.2 6.048 16.032zM539.648 561.12c-9.984 8.576-26.464 8.832-36.64 0.512l-295.072-240.16c-10.208-8.32-17.248-25.856-17.248-39.04l0-213.888c0-13.152 10.752-23.968 23.936-24.064l208.512-0.896c13.152-0.096 23.936 10.656 23.936 23.808l0 168.544c0 13.152 6.944 23.936 15.456 23.936l93.344 0c10.528 0 19.168-10.752 19.168-23.936l0-167.776c0-13.152 10.752-23.936 23.936-23.936l209.28 0c13.152 0 23.936 10.752 23.936 23.936l0 214.304c0 13.152-5.504 30.976-15.456 39.552l-277.088 239.104z"  horiz-adv-x="1024" />

    
    <glyph glyph-name="weibo" unicode="&#58919;" d="M727.97389 393.508561c-34.903951 6.79373-17.920138 25.638937-17.920138 25.638937s34.154891 56.461943-6.762007 97.512894c-50.737568 50.842968-174.004009-6.470365-174.004009-6.470365-47.086411-14.645558-34.58468 6.684236-27.932166 42.98807 0 42.768059-14.622022 115.15981-140.031267 72.399937-125.277238-42.98807-232.869698-193.601346-232.869698-193.601346-74.803683-100.08037-64.875566-177.435155-64.875566-177.435155 18.670222-170.765245 199.652156-217.636762 340.408947-228.734518 148.081617-11.647271 347.975273 51.18066 408.559093 180.25027C873.160573 335.336674 763.015987 386.503007 727.97389 393.508561L727.97389 393.508561zM414.963966 73.95868800000005c-147.040914-6.885827-265.874393 67.022463-265.874393 165.386748 0 98.467639 118.832456 177.435155 265.874393 184.224792 147.090033 6.79373 266.166035-53.973262 266.166035-152.240333C681.128979 172.97993599999995 562.049906 80.65622699999994 414.963966 73.95868800000005L414.963966 73.95868800000005zM414.963966 73.95868800000005M385.605312 358.71205699999996c-147.840116-17.349133-130.773416-156.206668-130.773416-156.206668s-1.503237-43.969421 39.656185-66.364477c86.506213-46.981011 175.585017-18.533099 220.606397 39.730886C560.115857 234.167506 533.714558 375.94350999999995 385.605312 358.71205699999996L385.605312 358.71205699999996zM348.310917 163.82236799999998c-27.580149-3.243881-49.851385 12.706393-49.851385 35.868929 0 23.057135 19.775392 47.196928 47.384194 50.088792 31.715329 3.024893 52.372811-15.293311 52.372811-38.454824C398.216537 188.27222300000005 375.840924 166.95266200000003 348.310917 163.82236799999998L348.310917 163.82236799999998zM435.488419 238.26687100000004c-9.366322-7.005554-20.849864-6.03546-25.78834 2.371-5.1503 8.188496-3.217275 21.328771 6.227842 28.228925 10.943236 8.179286 22.347984 5.820566 27.287483-2.38021C448.177416 258.092405 444.636776 245.48936600000002 435.488419 238.26687100000004L435.488419 238.26687100000004zM435.488419 238.26687100000004M799.992133 453.63087c11.911284 0 22.055318 8.837272 23.746844 20.364817 0.213871 0.859577 0.319272 1.612731 0.319272 2.581802 18.058284 162.79062-133.053342 134.771473-133.053342 134.771473-13.415544 0-24.15412-10.884908-24.15412-24.454972 0-13.356193 10.738575-24.235984 24.15412-24.235984 108.558461 24.02109 84.600817-84.792175 84.600817-84.792175C775.600607 464.405261 786.521331 453.63087 799.992133 453.63087L799.992133 453.63087zM799.992133 453.63087M782.390243 737.7682090000001c-52.268434 12.264325-105.98587 1.694595-121.036657-1.196245-1.155313-0.110517-2.25639-1.210571-3.326768-1.426489-0.511653-0.109494-0.830925-0.648776-0.830925-0.648776-14.868639-4.207835-25.707498-17.980513-25.707498-34.256198 0-19.396769 15.668865-35.348066 35.256992-35.348066 0 0 18.99461 2.554172 31.902594 7.612375 12.794397 5.167696 120.981399 3.847631 174.754093-86.643336 29.297256-66.040089 12.875239-110.23873 10.837836-117.340475 0 0-6.977925-17.160845-6.977925-34.054607 0-19.506263 15.668865-31.756261 35.097356-31.756261 16.258289 0 29.887704 2.220574 33.885761 29.763884l0.214894 0C1004.179582 625.2956019999999 875.869265 715.900156 782.390243 737.7682090000001L782.390243 737.7682090000001zM782.390243 737.7682090000001"  horiz-adv-x="1024" />

    
    <glyph glyph-name="qzone" unicode="&#58889;" d="M506.496 809.701c-4.334-1.854-9.306-4.835-16.535-18.569-2.823-6.407-116.113-251.14-119.852-254.234-9.052-8.046-2.956-7.223-184.21-28.478-81.869-9.696-90.921-11.14-95.842-15.889-3.54-3.298-7.281-14.169-2.356-22.285s203.492-198.513 203.492-208.219c0-4.742-36.016-203.261-38.577-216.883-13.577-72.635-13.775-74.697-6.686-82.543 6.686-7.429 14.364-6.602 34.634 4.125 18.896 10.114 184.798 110.399 192.672 115.562 18.692 12.18 34.833 18.364 44.084 16.51 3.929-0.822 13.38-4.748 20.859-9.077 19.681-10.941 143.666-85.843 182.239-109.985 32.87-20.636 42.512-24.562 53.73-21.463 7.478 1.858 9.641 13.207 7.084 35.697-1.182 10.117-12.007 68.509-27.748 160.135-7.283 43.543-7.283 44.366 9.047 50.764 22.636 8.874 33.26 16.715 29.131 21.049-1.377 1.451-13.974-0.205-40.149-5.156-48.613-9.287-58.647-10.731-110.016-15.687-58.448-5.779-112.377-7.010-184.405-4.335-56.285 2.062-123.2 7.225-126.94 9.7-2.95 2.067-1.572 8.464 2.956 12.583 2.362 2.277 32.272 24.767 66.321 50.145 106.667 79.246 175.942 131.658 181.649 137.233 9.84 9.696 9.052 10.11-31.883 15.679-64.748 8.669-81.673 10.114-187.159 15.276-35.228 1.644-67.11 3.711-70.85 4.329-38.573 6.811 158.034 25.385 241.086 22.7 54.513-1.65 118.672-6.397 156.455-11.555 35.228-4.957 37.394-5.365 37.394-9.49-4.759-11.207-237.931-176.029-248.165-183.866-6.496-4.948-11.609-10.314-11.609-11.967 0-3.926 9.642-6.402 39.357-10.114 78.917-9.7 225.733-15.067 232.229-8.255 1.377 1.45-3.939 29.515-3.939 30.541 0 2.89 204.675 201.866 204.675 215.851 0 13.986-6.5 15.683-16.141 18.159-4.724 1.236-265.094 29.301-269.619 31.573-8.662 4.125-16.73 21.049-76.365 161.785-42.512 100.7-46.252 108.75-52.153 114.32-4.909 4.75-12.582 6.608-17.894 4.336v0 0zM506.496 809.701z"  horiz-adv-x="1024" />

    
    <glyph glyph-name="linkedin" unicode="&#58955;" d="M76.429717 534.273539l185.949063 0 0-597.359087L76.429717-63.085548 76.429717 534.273539zM169.46053 831.240067c59.448974 0 107.651812-48.269353 107.651812-107.624183 0-59.416228-48.202838-107.678418-107.651812-107.678418-59.661821 0-107.771539 48.26219-107.771539 107.678418C61.687968 782.970714 109.797685 831.240067 169.46053 831.240067M378.942565 534.273539l178.074721 0 0-81.643462 2.52552 0c24.76094 47.0025 85.404112 96.497775 175.787632 96.497775 187.962929 0 222.729757-123.666554 222.729757-284.552801l0-327.659575L772.459057-63.084525 772.459057 227.347171c0 69.336158-1.373277 158.458965-96.55815 158.458965-96.68504 0-111.423719-75.455529-111.423719-153.332201l0-295.559483L378.942565-63.085548 378.942565 534.273539z"  horiz-adv-x="1024" />

    
    <glyph glyph-name="wechat" unicode="&#59028;" d="M405.333333 725.333333C228.693333 725.333333 85.333333 610.56 85.333333 469.333333 85.333333 388.693333 131.413333 317.44 203.946667 270.506667L170.666667 170.666667 277.333333 234.666667C315.306667 221.44 357.12 213.333333 401.493333 213.333333 390.4 240.213333 384 268.8 384 298.666667 384 439.893333 517.546667 554.666667 682.666667 554.666667 690.773333 554.666667 698.88 554.666667 706.56 553.386667 663.04 653.226667 545.28 725.333333 405.333333 725.333333M277.333333 618.666667C300.8 618.666667 320 599.466667 320 576 320 552.533333 300.8 533.333333 277.333333 533.333333 253.866667 533.333333 234.666667 552.533333 234.666667 576 234.666667 599.466667 253.866667 618.666667 277.333333 618.666667M490.666667 618.666667C514.133333 618.666667 533.333333 599.466667 533.333333 576 533.333333 552.533333 514.133333 533.333333 490.666667 533.333333 467.2 533.333333 448 552.533333 448 576 448 599.466667 467.2 618.666667 490.666667 618.666667M682.666667 512C541.44 512 426.666667 416.426667 426.666667 298.666667 426.666667 180.906667 541.44 85.333333 682.666667 85.333333 711.253333 85.333333 738.56 88.746667 764.16 96L853.333333 42.666667 826.88 122.453333C893.866667 161.28 938.666667 225.706667 938.666667 298.666667 938.666667 416.426667 823.893333 512 682.666667 512M597.333333 405.333333C620.8 405.333333 640 386.133333 640 362.666667 640 339.2 620.8 320 597.333333 320 573.866667 320 554.666667 339.2 554.666667 362.666667 554.666667 386.133333 573.866667 405.333333 597.333333 405.333333M768 405.333333C791.466667 405.333333 810.666667 386.133333 810.666667 362.666667 810.666667 339.2 791.466667 320 768 320 744.533333 320 725.333333 339.2 725.333333 362.666667 725.333333 386.133333 744.533333 405.333333 768 405.333333Z"  horiz-adv-x="1024" />

    
    <glyph glyph-name="zhihu" unicode="&#58932;" d="M506.995009 399.092743 381.830335 399.092743 381.830335 590.480678l110.707404 0c18.09103 0 32.809243 14.604626 32.809243 32.556487 0 17.949814-14.718213 32.552393-32.809243 32.552393l-212.008578 0c5.584182 23.909549 7.270591 45.157479 8.683776 62.956867l0.166799 2.055822c0.404206 4.989641 0.784876 9.702989 1.260713 14.012132 0.945535 8.618285-1.537006 17.092283-6.990205 23.858384-5.500271 6.825452-13.348006 11.096732-22.102391 12.028964-8.810666 0.978281-17.389042-1.475608-24.163329-6.900154-6.77838-5.428639-11.032264-13.226233-11.977799-21.940708-0.603751-5.51255-1.064238-11.294231-1.550309-17.414625l-0.042979-0.552585c-3.815909-48.001247-8.565073-107.74084-87.151919-179.124633-6.497994-5.895267-10.275018-13.948687-10.636245-22.679535-0.361227-8.729825 2.737344-17.066701 8.734942-23.485901 6.187933-6.611581 14.95255-10.403954 24.046672-10.403954 8.203846 0 16.063861 3.025916 22.152533 8.538467 33.040511 30.011524 57.760518 60.869323 75.247798 93.991698 0.602727-0.032746 1.209548-0.049119 1.816369-0.049119l58.189284 0 0-191.387935L167.024038 399.092743c-18.09103 0-32.809243-14.603603-32.809243-32.553417 0-17.951861 14.718213-32.556487 32.809243-32.556487l148.147108 0c-5.961782-94.7909-40.229237-213.795271-162.89909-275.067776-7.884574-3.936659-13.727653-10.694573-16.452717-19.030425-2.707668-8.27957-2.000564-17.105586 1.980097-24.829502 5.624091-10.958586 16.82827-17.765619 29.241998-17.765619 5.136997 0 10.255575 1.215688 14.733563 3.480264 88.605014 44.24469 149.058874 117.018134 178.777733 213.754339 1.201361-4.614088 3.431146-8.942673 6.603395-12.70844l103.458303-122.777301c6.258541-7.408737 15.435551-11.659551 25.178449-11.659551 7.604188 0 15.014972 2.644223 20.849864 7.429203 6.801916 5.561669 10.993378 13.422707 11.802814 22.13616 0.806365 8.695033-1.856277 17.171078-7.497765 23.864524L417.504836 243.570667c-11.55415 13.715373-32.223912 15.609513-46.040592 4.245697-0.938372-0.76748-1.822508-1.583055-2.659573-2.433422 6.377244 27.808346 10.44284 57.367569 12.125155 88.598874l126.066207 0c18.09103 0 32.809243 14.604626 32.809243 32.556487C539.804253 384.48914 525.08604 399.092743 506.995009 399.092743zM865.192088 661.890055 609.331769 661.890055c-18.09103 0-32.809243-14.604626-32.809243-32.556487l0-472.916866c0-17.951861 14.718213-32.556487 32.809243-32.556487l19.237133 0 4.499477-79.69918 0.057305-0.711198c1.227967-11.884678 8.886391-22.132066 19.968797-26.734898 4.01443-1.673106 8.278547-2.521426 12.675694-2.521426 7.419993 0 14.678304 2.517333 20.436448 7.088442l0.663102 0.527003 102.988606 102.113679 75.334779-0.062422c8.584516 0 17.006326 3.441379 23.121604 9.455349 6.248308 6.161327 9.689686 14.365172 9.689686 23.101137L898.004401 629.333568C898.003378 647.285428 883.284141 661.890055 865.192088 661.890055zM658.862859 188.965002l-16.721847 0L642.141012 596.785268l190.240809 0 0-407.79366-54.960753 0.040932c-7.393387 0-14.641465-2.509147-20.408819-7.065929l-0.821715-0.648776-62.605873-65.067948-2.01489 42.603307-0.063445 0.840134C689.796382 176.381405 675.761738 188.965002 658.862859 188.965002z"  horiz-adv-x="1024" />

    
    <glyph glyph-name="coffee" unicode="&#58959;" d="M41.383126 36.97016599999995c27.589395-27.589395 60.87368-41.385059 99.86445-41.385059l706.210828 0c38.992702 0 72.280852 13.795664 99.858653 41.385059 27.5778 27.575868 41.371532 60.86595 41.371532 99.85672L0 136.82688700000006C0.00773 97.83611699999994 13.801461 64.54603399999996 41.383126 36.97016599999995zM264.832684 207.44970899999998l388.410062 0c33.833097 0 62.891144 12.133768 87.17414 36.410967 24.271402 24.277199 36.410967 53.337178 36.410967 87.17414l0 17.650874 35.301749 0c58.487121 0 108.429008 20.6848 149.802473 62.067926 41.369599 41.381194 62.069858 91.309554 62.069858 149.790878 0 58.489054-20.700259 108.425144-62.069858 149.80054-41.371532 41.375397-91.315351 62.071791-149.802473 62.071791L176.55319 772.416825c-9.559763 0-17.834456-3.501575-24.826011-10.481535-6.98769-6.989623-10.481535-15.270113-10.481535-24.831808l0-406.064801c0-33.838894 12.135701-62.896941 36.4129-87.17414C201.935743 219.58347700000002 230.993789 207.44970899999998 264.832684 207.44970899999998zM776.827853 666.474862l35.313343 0c29.429074 0 54.440599-10.299886 75.032642-30.893861 20.592043-20.599772 30.895794-45.607432 30.895794-75.038439 0-29.415547-10.303751-54.429005-30.895794-75.036507-20.592043-20.593975-45.6055-30.895794-75.032642-30.895794l-35.313343 0L776.827853 666.474862z"  horiz-adv-x="1025" />

    
    <glyph glyph-name="evernote" unicode="&#59385;" d="M643.84 399.786667C643.84 399.786667 651.946667 454.4 682.666667 454.4 715.093333 454.4 758.613333 381.44 758.613333 381.44 758.613333 381.44 659.626667 399.786667 643.84 399.786667M810.666667 695.893333C795.306667 721.493333 718.08 750.506667 677.973333 750.506667 638.293333 750.506667 576 750.506667 576 750.506667 576 750.506667 541.866667 810.666667 464.213333 810.666667 386.133333 810.666667 391.253333 776.106667 391.253333 746.666667L391.253333 626.346667 355.84 589.226667 192 589.226667C192 589.226667 146.773333 558.506667 146.773333 493.226667 146.773333 426.666667 167.253333 198.4 304.213333 177.066667 466.346667 152.32 494.08 227.413333 494.08 236.373333 494.08 274.773333 494.933333 332.373333 494.933333 332.373333 494.933333 332.373333 542.293333 241.92 613.973333 241.92 685.653333 241.92 727.04 200.533333 727.04 158.293333 727.04 116.053333 727.04 79.786667 727.04 79.786667 727.04 79.786667 725.333333 30.72 682.666667 30.72 640 30.72 592.64 30.72 592.64 30.72 592.64 30.72 563.2 53.76 563.2 85.333333 563.2 117.333333 577.28 125.866667 594.346667 125.866667 610.986667 125.866667 625.066667 124.16 625.066667 124.16L625.066667 190.72C625.066667 190.72 489.386667 192 489.386667 87.893333 489.386667-15.786667 560.213333-42.666667 616.96-42.666667 674.133333-42.666667 709.546667-42.666667 709.546667-42.666667 709.546667-42.666667 877.226667-21.333333 877.226667 309.333333 877.226667 640 824.746667 670.72 810.666667 695.893333M320 626.773333 181.76 626.773333 354.986667 801.28 354.986667 661.333333 320 626.773333Z"  horiz-adv-x="1024" />

    
    <glyph glyph-name="close" unicode="&#58940;" d="M574.85863 384l298.588469 298.588469c17.359366 17.35732 17.359366 45.500287 0 62.859653-17.35732 17.359366-45.500287 17.359366-62.859653 0L511.998977 446.860676 213.410508 745.449145c-17.35732 17.359366-45.500287 17.359366-62.859653 0-17.35732-17.359366-17.35732-45.502333 0-62.859653l298.588469-298.588469L150.549831 85.411531c-17.35732-17.359366-17.35732-45.502333 0-62.859653 17.359366-17.359366 45.502333-17.359366 62.859653 0l298.588469 298.588469 298.588469-298.588469c17.359366-17.359366 45.502333-17.359366 62.859653 0 17.359366 17.35732 17.359366 45.500287 0 62.859653L574.85863 384z"  horiz-adv-x="1024" />

    
    <glyph glyph-name="list" unicode="&#59110;" d="M96.19391621093718 671.9649597656248l1007.4573439453122 5.995204332975845e-13c26.31885556640625 1.717376241217039e-14 47.827772753906224 21.516111914062517 47.82777275390622 47.834068359375024-1.5612511283791264e-15 26.32425205078125-21.28317011718752 47.833169238281236-47.82777275390628 47.83316923828122L96.19391621093712 767.6321973632807c-26.32425205078125-1.5612511283791264e-15-47.83496748046872-21.50891718750002-47.83496748046871-47.833169238281265C48.358948730468626 693.4810716796874 69.8696641601561 671.9649597656247 96.19391621093718 671.9649597656248L96.19391621093718 671.9649597656248zM1103.6512601562501 433.03565361328174L96.19391621093752 433.03565361328106c-26.32425205078125-1.5612511283791264e-15-47.83496748046873-21.517011035156276-47.83496748046871-47.83496748046878s21.510715429687533-47.834967480468734 47.83496748046878-47.83496748046871l1007.4573439453122 5.995204332975845e-13c26.31885556640625 1.717376241217039e-14 47.827772753906224 21.517011035156273 47.827772753906224 47.83496748046877S1129.9701166015625 433.03565361328174 1103.6512601562501 433.03565361328174L1103.6512601562501 433.03565361328174zM1103.6512601562501 98.66395781250014L96.19391621093757 98.6639578124998c-26.32425205078125-1.5612511283791264e-15-47.834967480468734-21.283170117187506-47.83496748046871-47.83496748046878 1.8735013540549517e-14-26.54460263671875 21.510715429687497-47.82777275390625 47.83496748046877-47.827772753906224l1007.4573439453122 5.995204332975845e-13c26.31885556640625 1.717376241217039e-14 47.827772753906224 21.283170117187524 47.82777275390622 47.82777275390629C1151.4790329101565 77.38168681640673 1129.9701166015625 98.66395781250037 1103.6512601562501 98.66395781250014L1103.6512601562501 98.66395781250014zM1103.6512601562501 98.66395781250014"  horiz-adv-x="1256" />

    
    <glyph glyph-name="code" unicode="&#59112;" d="M336 112c-12.286 0-24.57 4.688-33.942 14.058l-224 224c-18.746 18.746-18.746 49.138 0 67.882l224 224c18.746 18.744 49.136 18.744 67.882 0 18.742-18.744 18.742-49.136 0-67.882L179.882 384l190.058-190.058c18.742-18.746 18.742-49.136 0-67.882C360.566 116.688 348.286 112 336 112zM688 112c12.286 0 24.57 4.688 33.942 14.058l224 224c18.746 18.746 18.746 49.138 0 67.882l-224 224c-18.746 18.744-49.136 18.744-67.882 0-18.742-18.744-18.742-49.136 0-67.882L844.118 384l-190.058-190.058c-18.742-18.746-18.742-49.136 0-67.882C663.434 116.688 675.714 112 688 112z"  horiz-adv-x="1024" />

    
    <glyph glyph-name="facebook" unicode="&#59106;" d="M767.428571 867.80952367l0-150.857143-89.714286 0q-49.142857 0-66.285714-20.571429t-17.142857-61.714286l0-108 167.428571 0-22.285714-169.142857-145.142857 0 0-433.714286-174.857143 0 0 433.714286-145.714286 0 0 169.142857 145.714286 0 0 124.571429q0 106.285714 59.428571 164.857143t158.285714 58.571429q84 0 130.285714-6.857143z"  horiz-adv-x="1024" />

    
    <glyph glyph-name="stackoverflow" unicode="&#59429;" d="M809.714286-36.571429l-638.857143 0 0 274.285714-91.428571 0 0-365.714286 821.714286 0 0 365.714286-91.428571 0 0-274.285714zm-538.285714 299.428571l18.857143 89.714286 447.428571-94.285714-18.857143-89.142857zm58.857143 213.714286l38.285714 83.428571 414.285714-193.714286-38.285714-82.857143zm114.857143 203.428571l58.285714 70.285714 350.857143-293.142857-58.285714-70.285714zm226.857143 216l272.571429-366.285714-73.142857-54.857143-272.571429 366.285714zm-410.285714-840.571429l0 90.857143 457.142857 0 0-90.857143-457.142857 0z"  horiz-adv-x="1024" />

    
    <glyph glyph-name="email" unicode="&#58941;" d="M512.012041 329.46453398999995l415.548448 346.226152c-2.25174 0.409407-4.274694 1.348636-6.610724 1.348636L103.074318 677.03932299c-2.287865 0-4.32286-0.927187-6.5746-1.348636L512.012041 329.46453398999995zM958.133584 639.85550299c0 3.901411-1.071684 7.513829-2.25174 11.06604L661.313264 405.39755399l295.014111-295.074318c0.758608 2.974224 1.806209 5.840075 1.806209 9.055127L958.133584 639.85550299zM68.15428 650.95766699c-1.143932-3.576294-2.287865-7.140546-2.287865-11.102164l0-520.465099c0-3.251176 1.119849-6.104986 1.854374-9.07921l295.110442 295.098401L68.15428 650.95766699zM632.582502 381.50743199l-108.697648-90.539229c-3.407714-2.901976-7.622201-4.298777-11.872813-4.298777-4.214487 0-8.453057 1.396802-11.896896 4.298777l-108.601317 90.491063L94.079398 84.03687699c2.926058-0.770649 5.828034-1.842333 8.99492-1.842333l817.887488 0c3.227093 0 6.129069 1.059643 9.115334 1.842333L632.582502 381.50743199z"  horiz-adv-x="1024" />

    
    <glyph glyph-name="message-copy" unicode="&#58886;" d="M603.507 778.236c130.141 0 260.287 0.005 390.427 0 54.069-0.005 93.629-39.35 93.641-93.293 0.033-200.027 0.030-400.053 0.005-600.083-0.007-54.383-39.337-93.791-93.833-93.801-260.287-0.054-520.572-0.050-780.862-0.005-47.75 0.007-84.275 30.041-92.738 76.197-1.084 5.918-1.202 12.074-1.202 18.118-0.059 199.608-0.071 399.22-0.034 598.829 0.007 54.907 39.267 94.034 94.169 94.039 130.142 0.005 260.287 0 390.427 0v0zM602.841 717.813c-129.94 0-259.883 0.007-389.829-0.007-21.081-0.005-33.474-12.155-33.477-32.842-0.018-200.248-0.018-400.496 0.030-600.749 0-3.315 0.133-6.746 0.963-9.932 3.843-14.787 15.593-22.705 33.32-22.705 259.465-0.005 518.932-0.005 778.397 0 22.919 0 34.905 11.933 34.905 34.729 0.005 198.575 0.005 397.148 0 595.727 0 24.216-11.552 35.784-35.738 35.784-129.523-0.005-259.043-0.005-388.567-0.005v0zM610.149 334.342c-36.513 0.548-66.089 2.875-93.952 14.632-8.592 3.624-16.996 8.194-24.602 13.585-69.249 49.102-138.285 98.504-207.429 147.753-10.948 7.797-16.088 18.218-13.716 31.402 2.176 12.108 9.747 20.218 21.718 23.542 10.422 2.892 19.598-0.113 28.272-6.328 49.792-35.692 99.706-71.221 149.577-106.805 14.808-10.568 30.127-20.498 44.289-31.867 16.561-13.294 35.119-20.541 55.923-23.111 31.027-3.83 61.799-3.411 91.892 5.939 6.449 2.004 12.79 5.295 18.315 9.216 68.886 48.896 137.629 97.986 206.35 147.109 10.647 7.609 21.851 9.492 33.583 3.491 20.587-10.535 22.052-38.052 2.783-51.926-29.355-21.136-58.883-42.033-88.33-63.038-38.132-27.201-76.52-54.044-114.278-81.752-21.706-15.925-45.841-24.799-72.075-28.393-14.89-2.038-29.962-2.724-38.32-3.448v0z"  horiz-adv-x="1263" />

    
    <glyph glyph-name="setting" unicode="&#59581;" d="M429.1035-63.091688c-23.638373 0-43.398416 16.990976-46.987151 40.404222l-13.687744 96.957239c-16.917298 8.231475-33.161261 17.845437-49.555649 29.325909l-89.590458-36.31816c-5.647627-2.267647-11.552104-3.415796-17.560958-3.415796-16.84362 0-32.57286 9.105379-41.048905 23.765263l-83.21526 145.371902c-11.558244 20.304442-6.884804 45.842071 11.107989 60.734246l76.393901 60.57461c-0.962931 9.188266-1.413186 18.593474-1.413186 29.405727 0 10.499122 0.697895 20.247136 1.457188 29.364795l-75.942623 60.126402c-18.454304 14.890128-23.325241 40.624233-11.606339 61.210084l83.356476 145.368832c8.123005 14.527878 24.458041 23.936155 41.59842 23.936155 5.759167 0 11.330046-1.051959 16.558118-3.127224l89.602737-36.32737c15.845896 11.215436 32.097022 20.829398 49.566906 29.322839l13.682627 96.627734c3.874237 23.716144 23.633257 40.876989 46.992267 40.876989l166.125575 0c23.186072 0 43.385113-17.364483 46.985104-40.390919l13.68979-96.677876c16.911158-8.229428 33.156144-17.84339 49.555649-29.327956l89.589434 36.323277c5.858428 2.27174 11.851932 3.412726 17.866926 3.412726 16.907065 0 32.140001-8.884344 40.742936-23.766286l83.21526-145.371902c11.558244-20.302395 6.885827-45.842071-11.106965-60.734246l-76.394924-60.573587c0.960885-9.194406 1.409093-18.596544 1.409093-29.40061 0-10.54517-0.696872-20.284999-1.452071-29.388331l75.67247-60.853973c18.393929-15.301498 23.242354-41.027415 11.57257-61.208037L853.522816 87.792765c-8.589632-14.792914-24.425296-23.966854-41.343617-23.966854-6.564509 0-12.270465 1.035586-17.441231 3.167133l-89.544409 36.729529c-14.839986-10.722202-31.096229-20.330024-49.581232-29.310559l-13.681604-96.622618c-3.418866-23.312962-23.619954-40.881083-46.993291-40.881083L429.1035-63.091688zM339.182514 155.827277c20.577664-15.644305 42.192961-28.234041 64.243163-37.420261 8.354272-3.278673 14.520715-11.262508 16.029068-20.806885l15.261589-108.120486 155.316391 2.37407 14.83794 105.686041c1.333368 9.025561 7.442506 16.996093 15.94618 20.827351l0.125867 0.053212c21.25714 8.585539 42.874483 21.183462 64.253396 37.44482 4.753257 3.825119 10.437723 5.876847 16.369829 5.876847 3.472078 0 6.894014-0.708128 10.17371-2.103918l100.473319-40.783869 76.096119 139.601478-84.538395 64.461127-0.061398 0.052189c-7.191796 6.022157-10.903328 15.130605-9.92914 24.366967 1.345648 10.43056 2.880607 24.042579 2.880607 37.536918s-1.534959 27.105335-2.87242 37.4571c-1.350764 9.420557 2.499937 18.847254 10.055007 24.555256l85.276199 67.201541-80.843236 136.791479-96.897887-41.668005-0.081864-0.030699c-3.123131-1.157359-6.391571-1.744737-9.712199-1.744737-5.998621 0-11.918447 1.977028-16.668635 5.566786-20.214391 15.799848-41.833781 28.54001-64.301492 37.900192-8.352225 3.278673-14.519692 11.263531-16.029068 20.810978L589.319481 779.832234l-157.280116-2.379187-12.43624-105.709577c-1.334391-8.995885-7.442506-16.966417-15.941064-20.802792-21.720697-9.18929-43.357484-21.941732-64.387449-37.934984-4.747117-3.823072-10.43056-5.874801-16.361643-5.874801-3.473101 0-6.897084 0.709151-10.178827 2.108011l-100.485599 40.783869-76.510558-139.175783 84.466764-64.407915c7.772011-6.084579 11.509125-15.287171 10.031471-24.64326-1.324158-10.255575-2.859118-23.868617-2.859118-37.358863 0-13.495362 1.534959-27.105335 2.873444-37.4571 1.347694-9.42158-2.503007-18.84623-10.058077-24.552186l-85.279269-67.206658 80.848353-137.226385 96.817046 41.636283c3.189645 1.276063 6.460132 1.879813 10.079566 1.879813C328.922846 161.511743 334.634942 159.544949 339.182514 155.827277zM512.455883 204.975651c-97.915054 0-177.575348 80.375585-177.575348 179.173752 0 98.79305 79.660294 179.168636 177.575348 179.168636 97.916077 0 177.574325-80.441077 177.574325-179.317015C690.030208 285.285744 610.37196 204.975651 512.455883 204.975651zM512.455883 510.214587c-68.474534 0-124.1823-56.42408-124.1823-125.777635 0-69.354578 55.708789-125.776611 124.1823-125.776611 68.474534 0 124.183324 56.422034 124.183324 125.776611C636.64023 453.790506 580.930417 510.214587 512.455883 510.214587z"  horiz-adv-x="1024" />

    
    <glyph glyph-name="csdn" unicode="&#58893;" d="M906.475693-47.728792c-49.491181-17.325597-152.164608-28.913517-295.537993-28.913517-412.545894 0-635.223462 193.912431-608.80579 450.249611C33.545364 679.03555 363.386627 850.974527 724.595296 850.974527c139.829675 0 222.1301-11.388375 299.383578-30.263258l-24.720008-205.822692c-51.434439 17.35118-171.688267 33.208333-269.12032 33.208333-212.388225 0-392.96493-63.425541-413.440264-263.878946-18.429745-179.328271 108.114346-265.024026 347.120812-265.024026 83.251076 0 205.89944 11.884678 262.580371 29.214369L906.475693-47.728792z"  horiz-adv-x="1024" />

    
    <glyph glyph-name="hotReview" unicode="&#58943;" d="M557.071522 17.191799999999944c-12.901845 0-23.87578 9.885138-25.048489 22.953781-1.172709 13.82282 9.04705 25.969465 22.86987 27.226085 19.602454 1.675152 53.781904 17.507746 61.237713 21.61325 117.78459 64.75584 179.859367 143.585209 184.551226 234.227626 3.434216 67.603701-25.718755 129.59559-50.850132 169.722496-11.728112 18.765389-23.958668 35.101449-35.268248 48.588625-0.838088-3.267417-1.842974-6.618744-2.931772-9.969049-9.131985-27.728528-25.886577-53.363372-45.907563-70.285786-6.534833-5.528923-15.414061-7.287987-23.624047-4.774747-8.126075 2.51324-14.493086 9.048073-16.754592 17.257036C589.323063 602.425731 519.0383 662.658557 476.649887 688.376289c-1.00591-42.388413-12.314467-86.536912-33.677007-131.941008-25.299199-53.531194-64.337307-107.145276-113.092731-155.063635l-0.083911-0.083911c-9.885138-9.717316-25.801642-9.549493-35.518958 0.335644-9.718339 9.885138-9.550517 25.801642 0.334621 35.518958l0 0 0 0c6.534833 6.450922 5.612834 15.247262-2.931772 31.582299-8.377808-18.932188-18.933211-36.859489-29.320793-54.535057-20.020986-34.011628-38.870286-66.180282-39.204907-100.107999-1.00591-102.202707 52.859905-167.126368 98.265024-203.651236 35.184337-28.314883 81.258699-35.938514 120.296807-19.938098 21.194718 8.712429 39.45664 21.194718 54.284347 37.195134 16.922415 18.261922 25.467021 39.122019 25.550932 61.824067 0 15.916505-4.356214 27.226085-4.440126 27.309996-5.445012 12.732999 0.502443 27.560706 13.320377 32.92283 12.81691 5.361101 27.560706-0.503467 32.921807-13.320377 0.838088-2.010797 8.461719-20.608364 8.461719-46.99636 0-24.628934-6.785543-61.237713-38.870286-96.003518-19.854187-21.445428-44.064588-38.116109-72.128761-49.592488-19.602454-8.042163-40.461527-11.979846-61.321624-11.979846-38.618553 0-77.404927 13.487176-109.48967 39.20593-32.755008 26.304086-59.227939 57.048297-78.662571 91.311659-25.969465 45.73974-38.870286 96.840582-38.367843 151.963017 0.502443 47.332005 23.706935 86.872556 46.158273 125.072577 18.8493 32.000831 36.608779 62.326511 38.786375 93.740988 0.754177 10.973936 8.628518 20.189831 19.351744 22.703071 10.723226 2.512217 21.864984-2.26253 27.393907-11.812023 3.853771-6.618744 8.042163-13.236466 12.482289-20.189831 7.874341-12.398378 16.000416-25.131377 22.115694-38.032198 64.923662 80.840166 96.170317 167.293167 84.693938 239.588727-1.340531 8.544607 1.759063 17.173125 8.292873 22.86987 6.450922 5.696746 15.415085 7.623631 23.707958 5.194302 1.675152-0.502443 41.299615-12.5662 87.793532-51.938929 26.807552-22.702048 50.682309-50.095955 71.03894-81.343633 17.090237-26.220175 31.66621-55.205323 43.646056-86.536912 2.093684 4.356214 3.936659 8.880251 5.445012 13.488199 5.863545 17.759479 6.2831 34.597983 1.340531 44.901653-4.942569 10.30367-2.346441 22.618137 6.282077 29.991058 8.712429 7.454786 21.278629 8.042163 30.661324 1.591241 17.84339-12.314467 56.629765-50.263777 90.306772-104.045681 28.985148-46.242184 62.578244-118.28601 58.472739-198.959378-2.597151-50.934043-19.938098-99.103112-51.352575-143.166677-35.184337-49.25889-88.714508-93.90881-159.083182-132.528386-0.419556-0.251733-46.577828-24.628934-81.0919-27.644617C558.578852 17.275711 557.824675 17.191799999999944 557.071522 17.191799999999944L557.071522 17.191799999999944z"  horiz-adv-x="1024" />

    
    <glyph glyph-name="hero" unicode="&#58917;" d="M258.98046875 805.875L90.125 505.14536132812503 216.86943359375 374.52099609375 848.9317871093749 374.52099609375 617.46875 136.5953613281249 472.268603515625 286.07490234375007 302.71572265625 286.07490234375007 617.4634765625-37.875 1144.8125 505.166455078125 231.75371093750005 505.166455078125 332.3498046875 685.123828125 903.875732421875 685.123828125 961.9349609374999 581.29248046875 1101.9289062500002 581.29248046875 975.2754394531249 805.875Z"  horiz-adv-x="1280" />

    
    <glyph glyph-name="cancel" unicode="&#58909;" d="M202.39154053 54.73974609000004l-35.59570313 35.59570313c-14.83154297 14.83154297-14.83154297 38.56201172 0 53.39355469L418.93206787 398.83154297 166.7958374 653.93408203c-14.83154297 14.83154297-14.83154297 38.56201172 0 53.39355469l35.59570313 35.59570312c14.83154297 14.83154297 38.56201172 14.83154297 53.39355468 0L510.88763427 490.78710938l255.10253907 255.10253906c14.83154297 14.83154297 38.56201172 14.83154297 53.39355468 0l35.59570313-35.59570313c14.83154297-14.83154297 14.83154297-38.56201172 0-53.39355469L602.84320068 398.83154297l255.10253906-255.10253906c14.83154297-14.83154297 14.83154297-38.56201172 0-53.39355469l-35.59570312-35.59570313c-14.83154297-14.83154297-38.56201172-14.83154297-53.39355469 0L510.88763427 306.87597656l-255.10253906-255.10253906c-14.83154297-14.83154297-17.79785156-38.56201172-32.62939453-23.73046875L202.39154053 54.73974609000004z"  horiz-adv-x="1024" />

    
    <glyph glyph-name="yingxiongbang" unicode="&#58891;" d="M875.95625 813.7996875l-103.936875-209.52187500000002c-88.0171875 84.665625-237.0234375 93.6215625-237.0234375 93.6215625l69.590625 137.07c2.86875 11.278125 12.6346875 19.8 24.81375 19.8h225.75c14.405625 0 26.0784375-11.6625 26.0784375-26.053124999999998 0-5.671875-2.1890625-10.6434375-5.2725-14.9165625z m2.9962500000000003-534.0037500000001c0-201.4246875-163.46906249999998-364.72125-365.1140625-364.72125-201.6440625 0-365.10843750000004 163.2965625-365.10843750000004 364.72125 0 201.4340625 163.464375 364.7240625 365.109375 364.7240625 201.6440625 0 365.113125-163.29 365.113125-364.725zM684.865625 363.7068750000001l-99.48375 14.446875-44.4975 90.0515625c-15.2296875 30.82875-39.15 30.234375-54.0834375 0l-44.495625000000004-90.0525-99.48375-14.445937500000001c-34.058437500000004-4.937812500000001-40.8815625-27.85125-16.715625-51.3815625l71.98875-70.096875L381.104375 143.25c-5.8228125-33.887812499999995 13.880624999999998-47.4459375 43.75125-31.760625l88.98281250000001 46.734375 88.98281250000001-46.734375c30.4678125-15.999374999999999 49.468125-1.46625 43.7596875 31.760625l-16.996875 98.9784375 71.9934375 70.096875c24.643125 23.99625 16.681875 46.539375-16.712812500000002 51.3815625zM148.04281249999997 813.7940625c-3.0768750000000002 4.2787500000000005-5.2734375 9.25125-5.2734375 14.9221875 0 14.390625 11.6765625 26.053124999999998 26.08125 26.053124999999998h225.75c12.178125 0 21.9459375-8.521875 24.8128125-19.8l69.590625-137.07s-149.00437499999998-8.955-237.0196875-93.6215625L148.04375 813.7940625z"  horiz-adv-x="1024" />

    
    <glyph glyph-name="read" unicode="&#58982;" d="M896 128V614.4h51.2v-537.6H640v51.2h256zM128 128V614.4H76.8v-537.6h307.2v51.2H128zM179.2 691.2h204.8c56.32 0 102.4-46.08 102.4-102.4v-486.4l-40.96 40.96c-20.48 20.48-58.88 35.84-87.04 35.84H179.2V691.2z m665.6 0h-204.8c-56.32 0-102.4-46.08-102.4-102.4v-486.4l40.96 40.96c20.48 20.48 58.88 35.84 87.04 35.84h179.2V691.2z"  horiz-adv-x="1024" />

    
    <glyph glyph-name="set" unicode="&#58896;" d="M511.993555 171.64059499999996c-116.513371 0-211.293812 94.942285-211.293812 211.640417S395.480184 594.912834 511.993555 594.912834c116.514804 0 211.306702-94.933691 211.306702-211.631822S628.506926 171.64059499999996 511.993555 171.64059499999996m0 353.497416c-78.09332 0-141.632136-63.640506-141.632136-141.856999 0-78.225087 63.538816-141.867025 141.632136-141.867025 78.104778 0 141.645026 63.641938 141.645026 141.867025 0 78.216493-63.540248 141.856999-141.645026 141.856999M591.781224 826.2266079999999v-46.588161c0-34.20781 20.396643-64.759091 51.940472-77.85127a83.452792 83.452792 0 0 1 32.19407-6.415039c22.474835 0 43.601925 8.765358 59.485554 24.679065l29.817971 29.860938 112.826765-113.008661-29.809377-29.860938c-24.146268-24.187804-31.303211-60.236052-18.232517-91.831442 13.060669-31.605416 43.570415-52.020678 77.716639-52.020678h45.075708v-159.828847H907.720801c-34.146224 0-64.65597-20.415262-77.716639-52.010652-13.072127-31.605416-5.913752-67.6508 18.232517-91.838603l29.809377-29.863803-112.826765-113.010092-29.817971 29.863802c-15.88363 15.912275-37.010719 24.677632-59.485554 24.677632a83.478572 83.478572 0 0 1-32.19407-6.415039c-31.542397-13.079288-51.940472-43.642028-51.940472-77.848405v-45.137294H432.217344v45.137294c0 34.209242-20.386617 64.770549-51.930447 77.849838a83.518675 83.518675 0 0 1-32.204095 6.415038c-22.463377 0-43.601925-8.765358-59.48269-24.677632l-29.822267-29.863802-112.825333 113.010093 29.810809 29.863802c24.146268 24.187804 31.303211 60.233188 18.232517 91.827145-13.060669 31.606848-43.570415 52.02211-77.718071 52.022111H71.213517V463.190422h45.065682c34.147656 0 64.658834 20.415262 77.718071 52.020678 13.070695 31.59539 5.913752 67.642207-18.232517 91.831442l-29.810809 29.860938 112.825333 113.008661 29.822267-29.860938c15.882198-15.913707 37.019313-24.679065 59.48269-24.679065a83.429876 83.429876 0 0 1 32.192637 6.415039c31.555287 13.092179 51.941904 43.64346 51.941905 77.85127V826.2266079999999H591.781224zM591.781224 896H432.217344c-38.31693 0-69.663108-35.753206-69.663109-74.13029v-42.231263c0-5.872217-3.530491-11.148618-8.93293-13.395815-1.786013-0.740472-3.666555-1.097102-5.538503-1.097102a14.425601 14.425601 0 0 0-10.229115 4.242318l-29.820835 29.860938c-13.541904 13.573414-31.39774 20.353676-49.256439 20.353676-17.857268 0-35.703077-6.780262-49.255008-20.353676l-112.835358-113.008661c-27.083809-27.133938-27.083809-71.549379 0-98.674723l29.820835-29.860937a14.527291 14.527291 0 0 0 3.13519-15.799128 14.465704 14.465704 0 0 0-13.364305-8.942956H74.10809C35.804051 532.962381 1.551841 501.566074 1.551841 463.18899v-159.828847c0-38.375652 34.25221-69.773392 72.556249-69.773391h42.171109a14.465704 14.465704 0 0 0 13.364306-8.942957c2.235739-5.412465 1.002574-11.651337-3.135191-15.799127l-29.820835-29.86237c-27.083809-27.133938-27.083809-71.539353 0-98.674723l112.835359-113.007228c13.55193-13.563388 31.39774-20.353676 49.255007-20.353676 17.8587 0 35.714535 6.790288 49.256439 20.353676l29.820835 29.860938a14.465704 14.465704 0 0 0 15.767618 3.145216 14.515833 14.515833 0 0 0 8.93293-13.397247v-42.231264c0-38.367058 31.346179-72.67799 69.663109-72.67799H591.781224c38.315497 0 69.661676 34.312364 69.661676 72.67799V-13.090745999999967c0 5.863623 3.520465 11.148618 8.932931 13.397247a14.417008 14.417008 0 0 0 5.538503 1.097102 14.465704 14.465704 0 0 0 10.229115-4.242318l29.810809-29.860938c13.553362-13.563388 31.409198-20.353676 49.265033-20.353676 17.847242 0 35.715967 6.790288 49.257871 20.353676l112.833927 113.007228c27.083809 27.13537 27.083809 71.540785 0 98.674723l-29.819403 29.86237a14.524427 14.524427 0 0 0-3.135191 15.799127 14.46284 14.46284 0 0 0 13.362874 8.942957h42.172541c38.304039 0 72.556249 31.396307 72.556249 69.773391V463.190422c0 38.375652-34.25221 69.773392-72.556249 69.773391h-42.172541a14.46284 14.46284 0 0 0-13.362874 8.942957 14.527291 14.527291 0 0 0 3.135191 15.799127l29.819403 29.860938c27.083809 27.123912 27.083809 71.540785 0 98.674723l-112.833927 113.00866c-13.541904 13.573414-31.41063 20.353676-49.257871 20.353676-17.857268 0-35.713103-6.780262-49.265033-20.353676L686.142016 769.389281a14.414143 14.414143 0 0 0-10.229115-4.242319c-1.871948 0-3.751057 0.355197-5.53707 1.097102a14.487188 14.487188 0 0 0-8.934363 13.394383V821.871142C661.441468 860.246794 630.096721 896 591.781224 896"  horiz-adv-x="1024" />

    
    <glyph glyph-name="time" unicode="&#58929;" d="M498.854 613.491h-63.282v-316.313h255.05v62.693H498.854v253.62zM511.145 766.11C298.545 766.11 126 595.177 126 384.561c0-210.615 172.544-381.549 385.145-381.549s385.143 170.934 385.143 381.549c-0.001 210.616-172.543 381.549-385.143 381.549z m0-686.788c-169.464 0-308.116 137.356-308.116 305.238s138.652 305.242 308.116 305.242c169.461 0 308.114-137.36 308.114-305.242S680.605 79.322 511.145 79.322z"  horiz-adv-x="1024" />

    
    <glyph glyph-name="comments" unicode="&#59108;" d="M721.28 640.64c31.36-39.68 46.72-81.92 46.72-128.64 0-46.08-15.36-88.96-46.72-128.64-31.36-39.04-74.24-70.4-128-93.44-54.4-22.4-113.92-33.92-177.28-33.92-28.8 0-58.24 2.56-88.32 8.32-41.6-29.44-87.68-50.56-138.88-64-12.16-3.2-26.24-5.76-42.88-7.68h-1.28c-3.84 0-7.04 1.28-10.24 3.84-3.2 2.56-5.12 6.4-5.76 10.24-0.64 0.64-0.64 1.92-0.64 3.2v3.2c0 0.64 0.64 1.92 1.28 3.2s0.64 1.92 1.28 2.56 0.64 1.92 1.92 2.56c0.64 1.28 1.28 1.92 1.92 2.56l2.56 2.56c1.28 1.28 1.92 1.92 1.92 2.56 1.92 1.92 5.76 6.4 11.52 12.8s10.24 11.52 12.8 14.72 6.4 8.32 11.52 14.72c5.12 6.4 8.96 12.8 12.8 19.2 3.2 6.4 7.04 14.08 10.24 21.76-41.6 23.68-73.6 53.76-97.28 88.32C75.52 435.2 64 472.32 64 512c0 46.08 15.36 88.96 46.72 128.64 31.36 39.04 74.24 70.4 128 93.44C293.12 756.48 352 768 416 768c63.36 0 122.88-11.52 176.64-33.92 54.4-23.04 97.28-54.4 128.64-93.44zM960 384c0-40.32-12.16-77.44-35.2-112-23.68-34.56-56.32-64-97.28-88.32 3.2-8.32 7.04-15.36 10.24-21.76s7.68-12.8 12.8-19.2 8.32-10.88 11.52-14.72c2.56-3.2 7.04-8.32 12.8-14.72 5.76-6.4 9.6-10.24 11.52-12.16 0.64-0.64 1.28-1.28 1.92-2.56l2.56-2.56c0.64-0.64 1.28-1.28 1.92-2.56 0.64-1.28 1.28-1.92 1.92-2.56s0.64-1.28 1.28-2.56c0.64-0.64 0.64-1.92 1.28-3.2v-3.2c0-1.28 0-2.56-0.64-3.2-1.28-4.48-3.2-8.32-6.4-10.88-3.2-2.56-7.04-3.84-10.88-3.2-16.64 2.56-30.72 5.12-42.88 8.32-51.2 13.44-97.92 34.56-138.88 64-30.08-5.12-59.52-8.32-88.32-8.32-90.24 0-168.96 21.76-236.16 65.92 19.2-1.28 33.92-1.92 44.16-1.92 53.76 0 104.96 7.68 154.24 22.4 49.28 14.72 93.44 36.48 131.84 64.64 41.6 30.72 73.6 65.92 96 106.24C821.12 424.96 832 467.2 832 512c0 25.6-3.84 51.2-11.52 76.16 42.88-23.68 76.8-53.12 101.76-88.96 24.96-35.84 37.76-74.24 37.76-115.2z"  horiz-adv-x="1024" />

    
    <glyph glyph-name="map" unicode="&#58990;" d="M512 896C229.22752 896 0 666.77248 0 384s229.22752-512 512-512 512 229.22752 512 512S794.77248 896 512 896zM215.11168 430.57664l249.22112-160.96768c27.0336-14.14656 67.7888-14.14656 94.81728 0l250.74176 161.88416-0.01024-0.0256 1.32096 0.86528 0.77824 0.50688 0.03072 0.03072 6.15936 4.06016c4.56192-6.11328 7.40864-12.60544 8.76032-19.2l0.0512 0.0256c0.07168-0.34816 0.09216-0.70656 0.15872-1.05472 0.15872-0.94208 0.32256-1.88416 0.41984-2.82624 0.34816-2.6368 0.59904-5.30944 0.59904-8.04352 0-14.12096-4.84864-27.07968-12.90752-37.40672h-0.01024a62.37184 62.37184 0 0 0-6.83008-7.98208l-252.82048-163.30752c-27.03872-14.07488-67.79392-14.07488-94.82752 0l-252.83072 163.37408c-8.42752 8.29952-13.4656 17.57184-15.21152 27.0336l-0.06656-0.18944a54.3232 54.3232 0 0 0-1.664 13.11744 54.016 54.016 0 0 0 14.3104 36.608l6.0928-4.0704 0.1024-0.10752 1.77664-1.14688 1.88928-1.26464-0.0512 0.08704z m598.23616-175.232c-1.50016-1.87904-3.10784-3.7376-4.9408-5.53984l-252.82048-163.30752c-27.03872-14.07488-67.79392-14.07488-94.82752 0l-252.83072 163.37408c-11.83744 11.66336-17.05984 25.23648-15.73888 38.56384l-0.05632-0.02048a75.02848 75.02848 0 0 0 6.43584 25.95328 50.54464 50.54464 0 0 0 6.57408 11.7504l9.0112-5.57056 250.16832-161.5872c27.0336-14.14656 67.7888-14.07488 94.81728 0l250.15808 161.58208v-0.01536l0.47104 0.32256 2.2016 1.41824 0.1792 0.1792 5.89824 3.98336c4.80768-6.4 7.76192-13.21472 9.03168-20.13696l0.10752 0.05632c0.7424-3.7632 1.152-7.64928 1.152-11.63264a59.04384 59.04384 0 0 0-14.99136-39.3728z m-6.23616 214.90688l-251.52-162.4832c-26.97216-14.14656-67.79392-14.21312-94.82752 0L207.93344 471.07584a55.9104 55.9104 0 0 0-3.46624 3.2768 46.4896 46.4896 0 0 0-15.36512 34.54464c0 16.78848 8.89856 31.46752 22.20544 39.68512l0.19456 0.18432 0.03072 0.02048-0.03072 0.0512 0.04096-0.04608L464.3328 712.1408c26.96192 14.14144 67.7888 14.21312 94.81728 0l252.9024-163.30752c0.26112-0.22016 0.49152-0.45056 0.7424-0.67584a45.45536 45.45536 0 0 0 19.38944-37.25312 45.53728 45.53728 0 0 0-25.07264-40.6528zM487.10144 650.1939199999999l-222.6176-139.13088 226.18112-141.4144c11.21792-6.54848 30.86336-6.54848 42.15296 0l222.61248 139.1872-226.18112 141.35296c-11.21792 6.62528-30.86336 6.5536-42.14784 0.00512z"  horiz-adv-x="1024" />

    
    <glyph glyph-name="unix" unicode="&#58887;" d="M663.03125 416.484375c-123.609375 0-223.59375-99.984375-223.59375-223.59375s99.984375-223.59375 223.59375-223.59375 223.59375 99.984375 223.59375 223.59375c0 123.1875-99.984375 223.59375-223.59375 223.59375z m-80.15625-217.265625v-14.765625c-0.421875-22.359375-12.234375-36.28125-33.75-40.5-6.328125-1.265625-13.078125-1.6875-19.40625-1.6875-5.90625 0-11.8125 0.421875-18.140625 1.6875-22.78125 3.796875-35.015625 17.71875-35.4375 40.921875-0.421875 9.703125 0 19.40625 0 29.109375v17.71875c0 0.84375 0 4.21875 2.109375 6.328125 1.265625 1.265625 3.375 2.109375 5.90625 2.109375h16.453125v-53.578125c0-12.65625 4.640625-17.296875 16.453125-18.984375 4.21875-0.421875 8.859375-0.84375 13.5-0.84375 3.796875 0 8.015625 0 12.234375 0.421875 11.390625 1.265625 16.03125 6.328125 16.453125 18.5625v13.5 3.375 12.65625 24.046875h24.46875v-10.125c-0.84375-6.75-0.421875-19.40625-0.84375-29.953125z m107.15625-42.1875v-0.84375c0-3.796875 0-10.125-6.328125-12.65625-1.6875-0.84375-3.375-1.265625-4.640625-1.265625-4.640625 0-8.015625 2.53125-10.96875 5.484375-8.4375 8.015625-29.109375 29.109375-42.609375 42.609375l-7.59375 7.59375v-45.140625c0-2.109375 0-5.0625-2.53125-7.171875-2.53125-2.53125-5.484375-2.53125-6.75-2.53125h-5.0625c-3.796875 0-6.328125 0-8.4375 2.109375s-2.109375 4.640625-1.6875 8.015625v4.21875V223.265625v5.484375c0.84375 8.4375 5.90625 11.8125 10.96875 11.8125 2.53125 0 5.484375-0.84375 8.015625-2.953125 4.21875-2.953125 7.59375-6.75 10.96875-10.125l2.53125-2.53125c12.234375-12.234375 29.53125-29.53125 39.65625-39.234375V240.5625h17.296875c2.109375 0 4.21875-0.84375 5.484375-2.109375 2.109375-2.109375 2.109375-4.640625 1.6875-6.328125v-59.484375c0.421875-5.484375 0.421875-10.546875 0-15.609375z m36.703125-11.8125c-2.109375-2.53125-5.484375-2.53125-6.328125-2.53125h-5.484375c-3.796875 0-6.328125 0-8.4375 2.109375s-2.109375 4.640625-2.109375 8.859375v4.21875 72.5625c0 6.328125 0.84375 10.546875 8.859375 10.546875h4.640625c4.21875 0 7.171875 0 9.28125-2.109375 2.109375-2.109375 2.109375-4.640625 2.109375-8.015625v-78.046875c-0.421875-2.53125-0.421875-5.484375-2.53125-7.59375z m98.71875-2.53125c-2.953125 0-5.0625 2.109375-6.75 3.375-7.59375 7.171875-21.09375 19.40625-27.421875 25.3125-4.21875-4.21875-11.8125-11.8125-17.71875-18.140625-1.6875-1.6875-3.375-3.796875-5.0625-5.484375-3.375-3.375-6.75-5.0625-11.390625-5.0625h-27.421875l10.125 10.96875c2.109375 2.53125 4.21875 4.640625 6.328125 6.75 9.703125 9.703125 18.984375 19.40625 28.6875 29.53125l1.6875 1.6875-1.6875 1.6875c-11.390625 11.8125-22.78125 23.203125-33.75 35.015625l-1.265625 1.265625-1.265625 1.265625-8.4375 9.28125h30.375c2.953125 0 5.0625-2.53125 6.75-3.796875l5.90625-5.90625c6.328125-6.75 15.609375-15.609375 20.25-20.25 3.796875 3.796875 9.703125 9.703125 15.1875 15.609375 3.375 3.375 6.75 7.171875 10.125 10.546875 2.953125 2.953125 6.328125 4.640625 10.546875 4.640625h18.984375l2.109375-6.75-0.84375-0.84375-4.640625-4.640625c-4.640625-5.0625-11.8125-12.234375-18.5625-19.40625l-1.265625-1.265625c-3.375-3.796875-7.171875-7.171875-10.546875-10.96875l-5.0625-5.0625-0.421875-0.421875 0.421875-0.421875c9.28125-9.703125 18.5625-19.40625 28.265625-28.6875l7.59375-8.015625c0.84375-0.84375 1.265625-1.6875 2.109375-2.53125l8.015625-9.28125h-29.953125zM409.90625 192.890625c0 139.640625 113.484375 253.125 253.125 253.125V742.59375c0 35.015625-28.265625 63.28125-63.28125 63.28125h-399.09375c-35.015625 0-63.28125-28.265625-63.28125-63.28125V-37.875h421.875c-87.75 39.65625-149.34375 128.25-149.34375 230.765625zM203.609375 658.21875H596.375v-65.8125h-392.765625V658.21875z m0-124.875H596.375v-65.8125h-392.765625v65.8125z"  horiz-adv-x="1024" />

    
    <glyph glyph-name="tag" unicode="&#59413;" d="M329.142857 640q0 30.285714-21.428571 51.714286T256 713.142857t-51.714286-21.428571T182.857143 640t21.428571-51.714286T256 566.857143t51.714286 21.428571T329.142857 640z m609.714286-329.142857q0-30.285714-21.142857-51.428572l-280.571429-281.142857q-22.285714-21.142857-52-21.142857-30.285714 0-51.428571 21.142857L125.142857 387.428571q-21.714286 21.142857-36.857143 57.714286T73.142857 512V749.714286q0 29.714286 21.714286 51.428571t51.428571 21.714286h237.714286q30.285714 0 66.857143-15.142857T509.142857 770.857143l408.571429-408q21.142857-22.285714 21.142857-52z"  horiz-adv-x="1024" />

    
    <glyph glyph-name="notice" unicode="&#58884;" d="M853.8 137.70000000000005l-63.9 112.4V487.5c0 51.1-18.5 104.9-52.1 151.4-34.1 47.3-82 84.3-134.9 104.2-0.4 0.1-0.8 0.3-1.2 0.4-0.9 0.3-3.8 1.2-7.9 2.4v3.5c0 46.4-37.8 84.2-84.2 84.2s-84.2-37.8-84.2-84.2v-2.9c-3.9-1.1-6.1-1.9-6.1-1.9l-0.9-0.3C364.6 725 315.8 688 281 640.3c-34.2-46.9-53.1-101.2-53.1-152.8v-237.4l-68.8-121c-9.4-16.4-9.4-36.9 0.2-53.4 9.5-16.4 27.2-26.6 46.3-26.6h166.8c5.9-30.6 22-58.5 45.8-79.1 25.4-22 57.8-34 91.3-34s65.9 12.1 91.3 34c23.8 20.6 39.9 48.5 45.8 79.1h166.8c29.5 0 53.5 24 53.5 53.5 0 13-4.7 25.4-13.1 35.1z m-261.7-88.6c-11.4-35.4-45-60.4-82.6-60.4-37.6 0-71.2 25-82.6 60.4h165.2z m209.3 52.8H205.6c-0.3 0-0.5 0.1-0.5 0.2-0.2 0.3-0.2 0.6 0 0.8l72.3 127.2c2.3 4 3.4 8.5 3.4 13V487.5c0 85.8 66.6 174.8 155 207.1 3.1 1 25.6 7.9 48.4 11.8 1.6-0.1 3.1-0.1 4.7 0.1 3.4 0.3 6.5 0.8 9.3 1.2 4.1 0.6 7.6 1.2 10.7 1.2 3.1 0 6.6-0.5 10.8-1.2 2.9-0.4 5.9-0.9 9.2-1.2 1.4-0.1 2.8-0.2 4.2-0.1 23.4-4 46.8-11.2 51.7-12.8 86.8-33 152.2-121.5 152.2-206v-244.4c0-4.6 1.2-9.1 3.4-13L809.3 109c1.2-2.2 2.8-4.2 4.6-5.9 0 0 0.1-0.1 0.1-0.4 0-0.6-0.5-0.6-0.7-0.6l-11.9-0.2zM535 759.5c-1.3 0.2-2.5 0.3-3.8 0.3-0.8 0-1.5 0-2.3-0.1-0.5 0.1-1 0.1-1.5 0.2-5.1 0.8-11.5 1.7-18.6 1.7-7 0-13.1-0.9-18.6-1.7l-1.1-0.2c-2.1 0.2-4.2 0.2-6.3-0.1-1.1-0.1-2.1-0.3-3.2-0.5 4.1 12.7 16 21.8 29.9 21.8 14.1 0 26-9.2 30-22.1-1.5 0.2-3 0.5-4.5 0.7z"  horiz-adv-x="1024" />

    
    <glyph glyph-name="link" unicode="&#58908;" d="M166.4 384c0 72.96 59.307 132.267 132.267 132.267h170.666v81.066H298.667c-117.76 0-213.334-95.573-213.334-213.333s95.574-213.333 213.334-213.333h170.666v81.066H298.667C225.707 251.733 166.4 311.04 166.4 384z m174.933-42.667h341.334v85.334H341.333v-85.334z m384 256H554.667v-81.066h170.666c72.96 0 132.267-59.307 132.267-132.267s-59.307-132.267-132.267-132.267H554.667v-81.066h170.666c117.76 0 213.334 95.573 213.334 213.333s-95.574 213.333-213.334 213.333z"  horiz-adv-x="1024" />

    
    <glyph glyph-name="emoji" unicode="&#58899;" d="M510.944-64c-247.04 0-448 200.96-448 448s200.992 448 448 448 448-200.96 448-448-200.96-448-448-448z m0 832c-211.744 0-384-172.256-384-384s172.256-384 384-384 384 172.256 384 384-172.256 384-384 384zM512 122.656c-89.184 0-171.904 40.32-226.912 110.624-10.88 13.92-8.448 34.016 5.472 44.896 13.888 10.912 34.016 8.48 44.928-5.472 42.784-54.688 107.136-86.048 176.512-86.048 70.112 0 134.88 31.904 177.664 87.552 10.784 14.016 30.848 16.672 44.864 5.888 14.016-10.784 16.672-30.88 5.888-44.864C685.408 163.68 602.144 122.656 512 122.656zM368 380.8c-26.528 0-48 21.472-48 48v64c0 26.528 21.472 48 48 48s48-21.472 48-48v-64c0-26.496-21.504-48-48-48zM656 380.8c-26.496 0-48 21.472-48 48v64c0 26.528 21.504 48 48 48s48-21.472 48-48v-64c0-26.496-21.504-48-48-48z"  horiz-adv-x="1024" />

    
    <glyph glyph-name="release" unicode="&#59688;" d="M953 793v0.1c0 0.8 0 1.7-0.1 2.5 0 0.2 0 0.5-0.1 0.7l-0.3 2.1c0 0.2-0.1 0.4-0.1 0.6-0.2 0.8-0.4 1.7-0.6 2.5-0.1 0.3-0.2 0.5-0.2 0.7-0.2 0.6-0.4 1.2-0.6 1.7l-0.3 0.9c-0.3 0.7-0.6 1.4-1 2.1-0.1 0.3-0.3 0.5-0.4 0.8-0.3 0.5-0.6 1-0.9 1.6l-0.6 0.9c-0.4 0.6-0.8 1.1-1.2 1.7-0.1 0.2-0.3 0.3-0.4 0.5-0.5 0.7-1.1 1.3-1.7 1.9-0.2 0.2-0.4 0.4-0.5 0.6-0.6 0.6-1.2 1.1-1.8 1.7l-0.2 0.2-0.1 0.1c-0.6 0.5-1.2 0.9-1.8 1.4-0.1 0.1-0.3 0.2-0.4 0.3-0.2 0.2-0.5 0.3-0.7 0.4-0.6 0.4-1.1 0.7-1.7 1-0.2 0.1-0.5 0.3-0.7 0.4-0.7 0.4-1.5 0.7-2.2 1.1-0.3 0.1-0.6 0.2-0.9 0.4-0.5 0.2-1.1 0.4-1.6 0.6-0.3 0.1-0.6 0.2-1 0.3l-2.4 0.6c-0.2 0-0.4 0.1-0.7 0.1-0.6 0.1-1.3 0.2-2 0.3-0.3 0-0.6 0.1-0.9 0.1-0.7 0.1-1.5 0.1-2.2 0.1h-0.4c-0.9 0-1.7 0-2.6-0.1-0.2 0-0.4 0-0.7-0.1l-2.1-0.3c-0.2 0-0.4-0.1-0.6-0.1-0.8-0.2-1.7-0.4-2.5-0.6-0.2-0.1-0.4-0.1-0.6-0.2-0.6-0.2-1.3-0.4-1.9-0.6-0.3-0.1-0.6-0.2-0.9-0.4-0.6-0.2-1.1-0.1-1.7-0.4-0.2-0.1-0.5 0-0.8 0L87.4 391.8c-10.2-5.3-16.5-16-16.4-27.5 0.1-11.5 6.6-22 16.8-27.2l220.4-111.3c15.1-7.6 33.5-1.6 41.1 13.5 7.6 15.1 1.6 33.5-13.5 41.1l-167.3 84.4 632.2 330.3L411 228c-4.6-5.5-7.1-12.4-7.1-19.6v-233.6c0-16.9 13.7-30.6 30.6-30.6s30.6 13.7 30.6 30.6V197.29999999999995l411.1 492.8-93.6-632.8L562 166.79999999999995c-15.1 7.5-33.5 1.3-41-13.8-7.5-15.1-1.3-33.5 13.8-41l258.3-128.2c4.3-2.1 8.9-3.2 13.6-3.2 4.9 0 9.7 1.2 14.2 3.5 8.7 4.5 14.7 12.9 16.1 22.6l115.7 782c0 0.3 0.1 0.6 0.1 0.8 0 0.3 0.1 0.6 0.1 0.9 0 0.9 0.1 1.8 0.1 2.6z"  horiz-adv-x="1024" />

    
    <glyph glyph-name="image" unicode="&#58900;" d="M383.428 544.714q0-40.178-28.157-68.272t-68.272-28.157-68.272 28.157-28.157 68.272 28.157 68.272 68.272 28.156 68.272-28.157 28.157-68.272zM897.714 351.859v-225h-707.142v96.428l160.714 160.714 80.357-80.358 257.143 257.143zM945.928 705.429h-803.57q-6.558 0-11.315-4.757t-4.757-11.314v-610.717q0-6.557 4.757-11.314t11.315-4.757h803.571q6.557 0 11.314 4.757t4.758 11.314v610.717q0 6.557-4.758 11.314t-11.314 4.757zM1026.286 689.359v-610.717q0-33.171-23.593-56.764t-56.764-23.592h-803.57q-33.172 0-56.765 23.592t-23.593 56.765v610.716q0 33.171 23.592 56.764t56.766 23.591h803.571q33.172 0 56.764-23.592t23.593-56.764z"  horiz-adv-x="1098" />

    
    <glyph glyph-name="sitemap" unicode="&#58903;" d="M1024 182.857V0q0-22.857-16-38.857t-38.857-16H786.286q-22.857 0-38.857 16t-16 38.857V182.857q0 22.857 16 38.857t38.857 16h54.857V347.43H548.57v-109.715h54.858q22.857 0 38.857-16t16-38.857V0q0-22.857-16-38.857t-38.857-16H420.57q-22.857 0-38.857 16t-16 38.857V182.857q0 22.857 16 38.857t38.857 16h54.858V347.43H182.857v-109.715h54.857q22.857 0 38.857-16t16-38.857V0q0-22.857-16-38.857t-38.857-16H54.857q-22.857 0-38.857 16T0 0V182.857q0 22.857 16 38.857t38.857 16h54.857V347.43q0 29.714 21.715 51.428t51.428 21.714H475.43V530.286h-54.86q-22.857 0-38.857 16t-16 38.857V768q0 22.857 16 38.857t38.857 16h182.86q22.857 0 38.857-16t16-38.857v-182.857q0-22.857-16-38.857t-38.857-16h-54.86V420.57h292.572q29.714 0 51.428-21.714t21.715-51.428v-109.715h54.857q22.857 0 38.857-16t16-38.857z"  horiz-adv-x="1024" />

    
    <glyph glyph-name="date" unicode="&#59490;" d="M730.688 727.296c14.72 0 26.752 9.216 26.752 20.48V875.52c0 11.328-12.032 20.416-26.752 20.416-14.784 0-26.688-9.216-26.688-20.48v-127.808c0-11.328 11.904-20.416 26.688-20.416M282.752 727.296c14.72 0 26.688 9.216 26.688 20.48V875.52C309.44 886.912 297.536 896 282.752 896 268.032 896 256 886.784 256 875.52v-127.808c0-11.328 11.968-20.416 26.752-20.416M413.696 140.79999999999995a32.64 32.64 0 0 1 50.56 0l262.4 301.056a45.44 45.44 0 0 1-0.128 58.112 32.64 32.64 0 0 1-50.56 0l-236.928-272-121.92 139.968a32.64 32.64 0 0 1-50.688 0 45.568 45.568 0 0 1 0-58.112l147.264-168.96M853.632 832h-88.704v-70.784c0-26.88-24.96-48.768-55.872-48.768-30.72 0-55.808 21.824-55.808 48.768V832H308.8v-70.784c0-26.88-25.024-48.768-55.808-48.768-30.72 0-55.808 21.824-55.808 48.768V832H108.48C48.704 832 0 789.504 0 737.28v-764.544c0-52.288 48.64-94.72 108.48-94.72h745.152c59.776 0 108.48 42.56 108.48 94.72V737.28c0 52.288-48.64 94.784-108.48 94.784z m37.824-844.8c0-16.768-16.896-30.592-37.76-30.592H108.416c-20.928 0-37.824 13.696-37.824 30.656V563.7760000000001h820.928l-0.128-576.512z"  horiz-adv-x="1024" />

    
    <glyph glyph-name="release1" unicode="&#59171;" d="M927.282768 768.918425c0 0.040955-0.003072 0.080887-0.003071 0.122866a28.277665 28.277665 0 0 1-0.100341 2.36108c-0.016382 0.225255-0.041979 0.449486-0.063481 0.67474a29.270834 29.270834 0 0 1-0.273377 1.962789c-0.030717 0.182252-0.056314 0.365527-0.091126 0.546754a29.110084 29.110084 0 0 1-0.552898 2.327292c-0.067576 0.236518-0.146416 0.468939-0.220136 0.703409a27.945926 27.945926 0 0 1-0.555969 1.627978c-0.107508 0.282592-0.21092 0.564161-0.32662 0.844705a28.568448 28.568448 0 0 1-0.902043 1.985314c-0.12901 0.255971-0.273377 0.503752-0.409554 0.756651a28.687219 28.687219 0 0 1-1.377126 2.288384 28.013502 28.013502 0 0 1-1.131393 1.571663c-0.122866 0.158702-0.236518 0.319452-0.362455 0.476107a28.491657 28.491657 0 0 1-2.098965 2.311933 27.862991 27.862991 0 0 1-1.68122 1.554258c-0.066553 0.058361-0.124914 0.121842-0.193514 0.17918-0.020478 0.016382-0.041979 0.030717-0.062457 0.048123a28.322716 28.322716 0 0 1-1.695554 1.306477c-0.117747 0.083959-0.240613 0.156654-0.359384 0.237542-0.21092 0.144368-0.424912 0.280545-0.636857 0.420817a28.348313 28.348313 0 0 1-1.613643 0.973715c-0.225255 0.127986-0.446414 0.260067-0.672693 0.380885a29.027149 29.027149 0 0 1-2.106132 0.999312c-0.278497 0.120818-0.561089 0.223207-0.843681 0.332763-0.498632 0.194538-1.002384 0.375766-1.512279 0.541635-0.302046 0.099317-0.602045 0.198634-0.906138 0.286688a28.789608 28.789608 0 0 1-2.217736 0.559041c-0.208873 0.043003-0.418769 0.069624-0.630713 0.107508a29.395748 29.395748 0 0 1-1.838898 0.278497 30.307006 30.307006 0 0 1-2.882238 0.191467c-0.119795 0.002048-0.239589 0.013311-0.361431 0.01331a29.180732 29.180732 0 0 1-2.449134-0.103412c-0.208873-0.016382-0.416721-0.043003-0.62457-0.063481-0.654263-0.0686-1.306478-0.159726-1.957669-0.272354-0.195562-0.033788-0.392148-0.063481-0.58771-0.10034-0.794535-0.155631-1.583951-0.33993-2.368247-0.563137-0.185323-0.051194-0.365527-0.117747-0.548802-0.174061a27.419649 27.419649 0 0 1-1.766202-0.604092c-0.282592-0.106484-0.564161-0.217064-0.84573-0.333787-0.530373-0.221159-1.05153-0.119795-1.57064-0.373718-0.235494-0.113651-0.474059 0.005119-0.706481 0.005119h-0.001023L112.709297 391.375046c-9.564113-4.997584-15.530293-15.096165-15.454526-25.886893 0.076791-10.790727 6.180172-20.717296 15.813909-25.580751l207.44531-104.745516c14.190027-7.167197 31.504951-1.488729 38.669077 12.705393 7.163102 14.192074 1.46518 31.495736-12.727918 38.65679l-157.408034 79.443263 594.973619 310.854656-366.759819-439.651239a28.785512 28.785512 0 0 1-6.681876-18.440175v-219.833298c0-15.896844 12.887645-28.786536 28.785512-28.786536 15.897867 0 28.786536 12.886621 28.786536 28.786536V208.29923L855.039468 672.075256l-88.129906-595.530613-207.580463 103.027437c-14.239173 7.065833-31.51519 1.251188-38.581023-12.989009-7.068904-14.241221-1.253236-31.51519 12.986962-38.584095L776.790056 7.366855a28.790631 28.790631 0 0 1 26.131601 0.272353 28.783464 28.783464 0 0 1 15.141216 21.295791l108.910682 735.954437c0.037884 0.261091 0.057338 0.523205 0.088054 0.782249a29.344553 29.344553 0 0 1 0.221159 3.24674z"  horiz-adv-x="1024" />

    
    <glyph glyph-name="juejin" unicode="&#58881;" d="M751.863172 804.793379L636.186483 896l-120.832-95.302621-6.285242-5.049379 127.117242-101.34069 127.540965 101.34069-11.864276 9.145379z m438.377931-353.739034l-554.372413-437.142069-554.019311 436.894896L0 385.05931l635.86869-501.371586 636.221793 501.654069-81.84938 65.712552z m-554.372413-35.451586L334.177103 653.417931 252.363034 587.74069l383.470345-302.397793 383.858759 302.680275-81.814069 65.712552-302.009379-238.132965z"  horiz-adv-x="1272" />

    
    <glyph glyph-name="icon" unicode="&#58888;" d="M374.144 384a137.856 137.856 0 1 1 275.712 0.128A137.856 137.856 0 0 1 374.144 384M511.424 691.968C264.448 691.968 64 394.688 64 383.488c0-10.048 200.448-307.456 447.424-307.456 248.064 0 445.184 310.208 448.512 307.456 3.2-1.728-200.576 308.48-448.512 308.48m0.512-525.632a217.664 217.664 0 1 0-0.128 435.328 217.664 217.664 0 0 0 0.128-435.328"  horiz-adv-x="1024" />

    
    <glyph glyph-name="write" unicode="&#59023;" d="M958.5 636.9a64.82 64.82 0 0 1-26.3 43l-63.8 46.7c-12 9-26.7 13.5-41.6 12.9-17.5 42.4-59.2 72.4-107.9 72.7H181.6c-64.3-0.5-116.3-52.5-116.8-116.8v-622.9c0.5-64.3 52.5-116.3 116.8-116.8h537.3c64.3 0.5 116.3 52.5 116.8 116.8V437.9L946.2 588c10.5 14 14.9 31.6 12.3 48.9zM788.9 72.5c0.1-18.6-7.3-36.5-20.4-49.6-13.2-13.2-31-20.5-49.6-20.4H181.6c-18.6-0.1-36.5 7.3-49.6 20.4-13.2 13.2-20.5 31-20.4 49.6v623c-0.1 18.6 7.3 36.5 20.4 49.6 13.2 13.2 31 20.5 49.6 20.4h537.3c18.6 0.1 36.5-7.3 49.6-20.4 6.8-6.8 12.1-15 15.6-23.8-2.8-2.7-5.3-5.6-7.6-8.7L458.8 281.20000000000005c-9.3-10.9-14-24.9-17.1-40.5l-17.1-107.5c-3.5-19.1 4.4-38.5 20.2-49.8 10.9-7.6 24.2-10.9 37.4-9.3 4.7 1.6 10.9 3.1 14 6.2l98.1 48.3c13.7 6.2 25.5 15.8 34.3 28L789 374.4v-301.9zM591.2 184.70000000000005c-4.6-5.9-10.4-10.7-17.1-14L476 122.39999999999998c-0.6-0.7-1.4-1.2-2.3-1.2s-1.8 0.4-2.3 1.2c-1.2 1.2-1.8 3-1.6 4.7l17.1 107.5c1.5 7.4 4.7 14.3 9.3 20.2l254.7 344.6 94.4-69.6-254.1-345.1zM908.8 616L873 567.4l-94.4 69.5 35.2 47.7c2.6 4.5 7.3 7.4 12.5 7.8 4.7 1.6 9.3 0 14-1.6l63.9-48.3c4.3-2.8 7.2-7.2 8.1-12.2 0.9-5-0.4-10.2-3.5-14.3zM206.5 628.5h358.2c8.3 0 16.1 4.5 20.2 11.7 4.2 7.2 4.2 16.1 0 23.4-4.2 7.2-11.9 11.7-20.2 11.7H206.5c-8.3 0-16.1-4.4-20.2-11.7-4.2-7.2-4.2-16.1 0-23.4 4.1-7.2 11.8-11.7 20.2-11.7zM449.4 491.5H206.5c-12.9 0-23.4-10.5-23.4-23.4 0-12.9 10.5-23.4 23.4-23.4h242.9c12.8 0.3 23 10.6 23.4 23.4 0.1 6.2-2.3 12.2-6.7 16.6-4.4 4.5-10.4 6.9-16.7 6.8zM338.9 309.20000000000005H206.5c-8.3 0-16.1-4.4-20.2-11.7-4.2-7.2-4.2-16.1 0-23.4 4.2-7.2 11.9-11.7 20.2-11.7h132.4c8.3 0 16.1 4.4 20.2 11.7 4.2 7.2 4.2 16.1 0 23.4-4.2 7.3-11.9 11.8-20.2 11.7z"  horiz-adv-x="1024" />

    
    <glyph glyph-name="windows" unicode="&#59009;" d="M526.382 742.593l416.12 68.075v-384.479h-416.12v316.404zM526.382 41.709v315.446h416.12v-384.479zM86.292 357.155h351.88v-303.94l-351.88 58.487v245.453zM86.292 673.559l351.88 57.528v-304.899h-351.88v247.371z"  horiz-adv-x="1024" />

    
    <glyph glyph-name="github" unicode="&#59428;" d="M512 822.857143q119.428571 0 220.285714-58.857143T892 604.285714 950.857143 384q0-143.428571-83.714286-258T650.857143-32.571429q-15.428571-2.857143-22.857143 4t-7.428571 17.142858q0 1.714286 0.285714 43.714285t0.285714 76.857143q0 55.428571-29.714286 81.142857 32.571429 3.428571 58.571429 10.285715t53.714286 22.285714 46.285714 38 30.285714 60T792 406.857143q0 68-45.142857 117.714286 21.142857 52-4.571429 116.571428-16 5.142857-46.285714-6.285714t-52.571429-25.142857l-21.714285-13.714286q-53.142857 14.857143-109.714286 14.857143t-109.714286-14.857143q-9.142857 6.285714-24.285714 15.428571T330.285714 633.428571 281.714286 641.142857q-25.714286-64.571429-4.571429-116.571428-45.142857-49.714286-45.142857-117.714286 0-48.571429 11.714286-85.714286t30-60 46-38.285714 53.714285-22.285714 58.571429-10.285715q-22.285714-20.571429-28-58.857143-12-5.714286-25.714286-8.571428t-32.571428-2.857143-37.428572 12.285714T276.571429 168q-10.857143 18.285714-27.714286 29.714286t-28.285714 13.714285l-11.428572 1.714286q-12 0-16.571428-2.571428t-2.857143-6.571429 5.142857-8 7.428571-6.857143l4-2.857143q12.571429-5.714286 24.857143-21.714285t18-29.142858l5.714286-13.142857q7.428571-21.714286 25.142857-35.142857t38.285714-17.142857 39.714286-4 31.714286 2l13.142857 2.285714q0-21.714286 0.285714-50.571428t0.285714-31.142857q0-10.285714-7.428571-17.142858t-22.857143-4q-132.571429 44-216.285714 158.571429T73.142857 384q0 119.428571 58.857143 220.285714T291.714286 764 512 822.857143zM239.428571 192.571429q1.714286 4-4 6.857142-5.714286 1.714286-7.428571-1.142857-1.714286-4 4-6.857143 5.142857-3.428571 7.428571 1.142858z m17.714286-19.428572q4 2.857143-1.142857 9.142857-5.714286 5.142857-9.142857 1.714286-4-2.857143 1.142857-9.142857 5.714286-5.714286 9.142857-1.714286z m17.142857-25.714286q5.142857 4 0 10.857143-4.571429 7.428571-9.714285 3.428572-5.142857-2.857143 0-10.285715t9.714285-4z m24-24q4.571429 4.571429-2.285714 10.857143-6.857143 6.857143-11.428571 1.714286-5.142857-4.571429 2.285714-10.857143 6.857143-6.857143 11.428571-1.714286z m32.571429-14.285714q1.714286 6.285714-7.428572 9.142857-8.571429 2.285714-10.857142-4t7.428571-8.571428q8.571429-3.428571 10.857143 3.428571z m36-2.857143q0 7.428571-9.714286 6.285715-9.142857 0-9.142857-6.285715 0-7.428571 9.714286-6.285714 9.142857 0 9.142857 6.285714z m33.142857 5.714286q-1.142857 6.285714-10.285714 5.142857-9.142857-1.714286-8-8.571428t10.285714-4.571429 8 8z"  horiz-adv-x="1024" />

    
    <glyph glyph-name="boke" unicode="&#58942;" d="M206.941091 280.040727c24.250182 20.922182 36.375273 48.290909 36.375273 82.082909 0 27.205818-8.005818 49.268364-23.970909 66.280728-15.988364 16.989091-37.306182 27.042909-63.930182 30.161454v1.093818c21.317818 6.981818 38.027636 18.734545 50.152727 35.281455 12.125091 16.523636 18.176 35.979636 18.176 58.414545 0 26.810182-10.007273 48.570182-30.045091 65.303273S146.618182 643.723636 112.453818 643.723636H0.023273v-395.101091h115.176727c36.910545 0.023273 67.490909 10.472727 91.741091 31.418182zM46.312727 601.856h53.178182c50.501818 0 75.752727-19.2 75.752727-57.576727 0-22.248727-7.261091-39.447273-21.76-51.665455s-34.443636-18.315636-59.787636-18.315636H46.312727v127.557818z m0-169.169455h53.178182c63.534545 0 95.325091-23.342545 95.325091-69.98109 0-22.411636-7.493818-40.052364-22.458182-52.89891-14.987636-12.869818-36.049455-19.293091-63.232-19.29309H46.312727v142.17309zM317.44 644.538182h45.172364v-395.892364h-45.172364V644.538182zM674.373818 288.698182c25.437091 27.089455 38.167273 63.138909 38.167273 108.125091 0 45.940364-11.822545 81.850182-35.397818 107.729454-23.621818 25.902545-56.436364 38.842182-98.490182 38.842182-44.101818 0-79.080727-13.312-104.983273-39.959273s-38.842182-63.650909-38.842182-111.034181c0-43.52 12.427636-78.475636 37.329455-104.820364 24.878545-26.368 58.181818-39.540364 99.886545-39.540364 42.775273 0.023273 76.893091 13.568 102.330182 40.657455z m-193.28 105.402182c0 34.722909 8.448 61.952 25.344 81.687272 16.896 19.758545 39.842909 29.626182 68.887273 29.626182 29.207273 0 51.665455-9.565091 67.351273-28.648727 15.732364-19.106909 23.575273-46.289455 23.575272-81.547636 0-34.909091-7.842909-61.812364-23.575272-80.733091-15.685818-18.920727-38.144-28.392727-67.351273-28.392728-28.672 0-51.549091 9.634909-68.608 28.928-17.082182 19.293091-25.623273 45.637818-25.623273 79.080728zM1025.512727 277.271273V536.808727h-45.172363v-39.121454h-1.093819c-18.385455 30.487273-46.568727 45.730909-84.596363 45.730909-40.052364 0-71.586909-14.149818-94.626909-42.426182-23.063273-28.276364-34.583273-66.397091-34.583273-114.338909 0-42.24 10.705455-75.915636 32.093091-100.980364 21.410909-25.088 49.664-37.608727 84.736-37.608727 43.170909 0 75.496727 17.989818 97.000727 53.992727h1.093818v-30.859636c0-28.928-5.329455-52.177455-16.011636-69.771636l-22.830545-24.157091-0.977455-0.674909c-7.144727-4.398545-57.716364-32.721455-130.117818 0.558545-78.219636 36.002909-189.533091 38.958545-216.948364-55.296l32.279273-24.855273s0 44.357818 49.989818 62.114909c37.143273 13.172364 77.568-3.467636 109.568-17.198545v-0.186182c9.192727-4.654545 18.920727-8.494545 29.207273-11.496727l0.488727-0.162909a225.047273 225.047273 0 0 1 61.765818-8.215273c99.141818 0 148.736 51.828364 148.736 155.415273z m-69.003636 35.816727c-15.918545-17.989818-36.514909-26.996364-61.858909-26.996364-24.971636 0-45.056 9.402182-60.206546 28.253091-15.150545 18.827636-22.737455 43.938909-22.737454 75.357091 0 36.538182 7.889455 64.954182 23.691636 85.248s37.655273 30.464 65.582546 30.464c22.597818 0 41.448727-7.982545 56.622545-23.970909 15.150545-15.988364 22.737455-35.165091 22.737455-57.576727v-41.611637c0-28.090182-7.959273-51.153455-23.831273-69.166545z"  horiz-adv-x="1025" />

    
    <glyph glyph-name="internet" unicode="&#58920;" d="M867.4784668 534.1782714799999c-19.43129883 45.9421875-47.24736328 87.2015625-82.67299805 122.62719727-35.42563477 35.42563477-76.68105469 63.24169922-122.62324219 82.67299805-47.57563477 20.1234375-98.10175781 30.32753906-150.17036133 30.32753906-52.07651367 0-102.60263672-10.20410156-150.18222656-30.32753906-45.94614258-19.43129883-87.2015625-47.24736328-122.62719726-82.67299805a388.31748047 388.31748047 0 0 1-37.64838868-43.68779297c-0.42319336-0.52207031-0.81870117-1.06787109-1.19443359-1.63740234a384.06181641 384.06181641 0 0 1-43.83413086-77.29804688C136.3980957 486.59868164 126.19399414 436.07255859 126.19399414 384s10.20410156-102.60263672 30.32753906-150.17827148c19.43129883-45.9421875 47.24736328-87.2015625 82.67299805-122.62719727 35.42563477-35.42563477 76.68500977-63.24169922 122.62719727-82.67299805 47.57958984-20.1234375 98.10571289-30.32753906 150.18222656-30.32753906 52.07255859 0 102.59868164 10.20410156 150.17036133 30.32753906 45.9421875 19.43129883 87.19760742 47.24736328 122.62324218 82.67299805 35.42563477 35.42563477 63.24169922 76.68500977 82.67299805 122.62719727 20.1234375 47.57563477 30.32753906 98.10571289 30.32753906 150.17827148 0.00791016 52.07255859-10.19619141 102.59868164-30.3196289 150.17827148z m-64.97006836-336.89750976c-27.1199707 14.01679688-59.46459961 26.06791992-95.21850586 35.48496094 9.44077148 41.10512695 14.97788086 85.31103516 16.24350586 130.95659179h133.10815429c-3.44487305-59.86010742-22.10888672-116.83696289-54.13315429-166.44155273zM167.35844727 363.72231445h133.0883789c1.265625-45.64555664 6.80668945-89.84750977 16.25141602-130.95659179-35.75390625-9.41704102-68.09458008-21.46816406-95.20664063-35.48496094-32.02426758 49.60458984-50.68828125 106.58144531-54.13315429 166.44155273z m56.18188476 210.14121094c26.9222168-13.68852539 58.85947266-25.45883789 94.08339844-34.678125-10.00634766-42.22045898-15.86381836-87.79482422-17.17294922-134.90771484h-133.08837891c3.51606445 61.1296875 22.89594727 119.24956055 56.17792969 169.58583984z m268.18989258-169.58188477H341.02592773c1.28935547 44.13867188 6.78691406 86.68344727 16.11298829 125.92177735 42.59223633-8.34916992 87.7078125-13.09921875 134.59130859-14.15522461v-111.76655274z m0-40.55932617v-107.578125c-47.23154297-1.06787109-92.66748047-5.87724609-135.53261719-14.34506836-8.76049805 38.12299805-13.921875 79.27954102-15.16772461 121.91923828l150.7003418 0.00395508z m40.55932617 0h150.66870117c-1.24584961-42.64365234-6.40327148-83.80019531-15.15981445-121.91923828-42.86513672 8.46386719-88.28920898 13.27719727-135.50493164 14.34506836v107.57416992z m0 40.55932617V516.04819336c46.86767578 1.05996094 91.9753418 5.80605469 134.55966797 14.15917969 9.32211914-39.24228516 14.81572266-81.78310547 16.10507813-125.92573243H532.28955078z m0 152.33774415V726.7035644499999c14.13544922-3.54375 28.04150391-10.78549805 41.54414063-21.68569336 20.63759766-16.65483398 39.3609375-40.87177734 55.65585937-71.96660156 10.17246094-19.41547852 18.99228516-40.75708008 26.39223633-63.58974609-38.66088867-7.35644531-80.52143555-11.78217773-123.59223633-12.84213867zM450.19003906 705.01787109c13.50263672 10.89624023 27.40869141 18.14194336 41.54018555 21.68569336v-170.08813476c-43.08662109 1.05996094-84.95507813 5.48569336-123.6159668 12.84213867 7.40786133 22.83266602 16.22768555 44.17822266 26.40410157 63.59370117 16.29887695 31.09482422 35.03012695 55.3078125 55.67167968 71.96660156z m41.54018555-489.44487304v-174.2765625c-14.13149414 3.54375-28.03754883 10.78945312-41.54018555 21.68569336-20.63759766 16.65878906-39.36884766 40.87177734-55.66772461 71.97055664-10.76176758 20.53476562-20.02060547 43.21318359-27.67763672 67.54086914 39.00893555 7.49882813 81.32431641 12.00761719 124.88554688 13.07944336z m82.09951172-152.59482422c-13.49868164-10.89624023-27.40869141-18.14194336-41.54414063-21.68569336v174.28051758c43.54541016-1.07182617 85.85288086-5.58457031 124.86577149-13.08339844-7.65307617-24.33164062-16.90795898-47.01005859-27.66577149-67.54086914-16.2909668-31.0987793-35.01826172-55.31176758-55.65585937-71.97055664z m149.70366211 341.3034668c-1.30913086 47.11289062-7.16264648 92.69121094-17.16503907 134.90771484 35.2199707 9.21533203 67.16118164 20.98564453 94.0913086 34.67416992 33.27802734-50.3362793 52.66186523-108.46010742 56.17792969-169.58188476h-133.10419922z m32.58984375 223.84160156a352.20761719 352.20761719 0 0 0 19.56972656-21.27436524c-23.3230957-11.21660156-50.38374023-20.79975586-80.08637695-28.50424804-8.34125977 26.4159668-18.4425293 51.10751953-30.19306641 73.5328125-11.68330078 22.29873047-24.62827148 41.65488281-38.57387695 57.88652343 48.08979492-16.91586914 92.16914062-44.52626953 129.28359375-81.64072265zM397.18408203 709.76396484c-13.94956055-16.22768555-26.89848633-35.58779297-38.58574219-57.88652343-11.75449219-22.42924805-21.86367187-47.12080078-30.20888671-73.53676758-29.7065918 7.70449219-56.76723633 17.28764648-80.08242188 28.50820312a351.01713867 351.01713867 0 0 0 19.56972656 21.27436524c37.1184082 37.1184082 81.20566406 64.72880859 129.30732422 81.64072265z m-129.30732422-569.88720703a351.64599609 351.64599609 0 0 0-22.07329101 24.25253906c23.56435547 11.59628906 51.08774414 21.48398438 81.39550781 29.41391602 8.5706543-27.8793457 19.07138672-53.89980469 31.39936523-77.4206543 11.68725586-22.29873047 24.63618164-41.65883789 38.58574219-57.88652343-48.10166016 16.91191406-92.18891602 44.52231445-129.30732422 81.64072265z m358.95893555-81.63676758c13.94956055 16.22768555 26.89057617 35.58779297 38.57387695 57.88652344 12.32006836 23.51689453 22.82080078 49.53339844 31.38354492 77.41274414 30.30380859-7.92993164 57.83115234-17.81762695 81.3994629-29.40996094a351.590625 351.590625 0 0 0-22.07329102-24.24858398c-37.11049805-37.1184082-81.18984375-64.72880859-129.28359375-81.64072266z"  horiz-adv-x="1024" />

    
    </font>
</defs>
</svg>
